# Blender v2.78 (sub 0) OBJ File: 'wunderhuebschelantern_squareglass.blend'
# www.blender.org
mtllib lantern_glass.mtl
o Cube.013_Cube.022
v -0.130000 0.010000 0.145000
v -0.130000 0.410000 0.145000
v -0.130000 0.010000 0.135000
v -0.130000 0.410000 0.135000
v 0.130000 0.010000 0.145000
v 0.130000 0.410000 0.145000
v 0.130000 0.010000 0.135000
v 0.130000 0.410000 0.135000
vt 0.0000 0.1750
vt 1.0000 0.1750
vt 1.0000 0.8250
vt 0.0000 0.8250
vt 0.0000 0.1750
vt 1.0000 0.1750
vt 1.0000 0.8250
vt 0.0000 0.8250
vt 0.0000 0.1750
vt 1.0000 0.1750
vt 1.0000 0.8250
vt 0.0000 0.8250
vt 0.0000 0.1750
vt 1.0000 0.1750
vt 1.0000 0.8250
vt 0.0000 0.8250
vt 1.0000 0.1750
vt 1.0000 0.8250
vt 0.0000 0.1750
vt 0.0000 0.8250
vn -1.0000 0.0000 0.0000
vn 0.0000 0.0000 -1.0000
vn 1.0000 0.0000 0.0000
vn 0.0000 0.0000 1.0000
vn 0.0000 -1.0000 0.0000
vn 0.0000 1.0000 0.0000
usemtl Material.000
s off
f 1/1/1 2/2/1 4/3/1 3/4/1
f 3/5/2 4/6/2 8/7/2 7/8/2
f 7/9/3 8/10/3 6/11/3 5/12/3
f 5/13/4 6/14/4 2/15/4 1/16/4
f 3/5/5 7/17/5 5/18/5 1/16/5
f 8/19/6 4/6/6 2/15/6 6/20/6
