# Blender v2.78 (sub 0) OBJ File: 'BACKUP9MapComplete.blend'
# www.blender.org
mtllib MapFloor.mtl
o Plane_Plane.007
v -100.000000 150.000015 -100.000000
v 100.000000 150.000015 -100.000000
v -100.000000 149.999985 100.000000
v 100.000000 149.999985 100.000000
vt 0.0000 0.0000
vt 1.0000 0.0000
vt 1.0000 1.0000
vt 0.0000 1.0000
vn 0.0000 -1.0000 -0.0000
usemtl None
s off
f 1/1/1 2/2/1 4/3/1 3/4/1
o Entrance_Floor_Cube
v 9.000000 -0.250000 -9.999999
v 9.000000 -0.250000 10.000000
v -11.000002 -0.250000 9.999998
v -10.999996 -0.250000 -10.000004
v 9.000005 0.250000 -9.999994
v 8.999994 0.250000 10.000006
v -11.000004 0.250000 9.999996
v -10.999999 0.250000 -10.000000
vt -4.5000 -4.5000
vt 5.5000 -4.5000
vt 5.5000 5.5000
vt -4.5000 5.5000
vt -4.5000 -4.5000
vt 5.5000 -4.5000
vt 5.5000 5.5000
vt -4.5000 5.5000
vt 5.5000 -4.5000
vt 5.5000 5.5000
vt -4.5000 5.5000
vt -4.5000 -4.5000
vt 5.5000 -4.5000
vt -4.5000 5.5000
vt -4.5000 -4.5000
vt 5.5000 -4.5000
vt 5.5000 5.5000
vt 5.5000 -4.5000
vt 5.5000 5.5000
vt -4.5000 5.5000
vn 0.0000 -1.0000 0.0000
vn 0.0000 1.0000 -0.0000
vn 1.0000 0.0000 0.0000
vn -0.0000 -0.0000 1.0000
vn -1.0000 -0.0000 -0.0000
vn 0.0000 0.0000 -1.0000
usemtl Material.005
s off
f 5/5/2 6/6/2 7/7/2 8/8/2
f 9/9/3 12/10/3 11/11/3 10/12/3
f 5/5/4 9/13/4 10/14/4 6/15/4
f 6/16/5 10/17/5 11/11/5 7/18/5
f 7/19/6 11/20/6 12/21/6 8/8/6
f 9/9/7 5/22/7 8/23/7 12/24/7
o Entrance_Floor.008_Cube.002
v 27.000000 -6.000000 -29.999998
v 27.000000 -6.000000 30.000000
v 23.500000 -6.000000 29.999994
v 23.500000 -6.000000 -30.000011
v 27.000000 -5.500000 -29.999985
v 26.999998 -5.500000 30.000017
v 23.500000 -5.500000 29.999989
v 23.500000 -5.500000 -30.000000
vt -0.3750 -4.5000
vt 1.3750 -4.5000
vt 1.3750 5.5000
vt -0.3750 5.5000
vt 1.3750 -4.5000
vt 1.3750 5.5000
vt -0.3750 5.5000
vt -0.3750 -4.5000
vt 1.3750 -4.5000
vt 1.3750 5.5000
vt -0.3750 5.5000
vt -0.3750 -4.5000
vt 1.3750 -4.5000
vt 1.3750 5.5000
vt -0.3750 -4.5000
vt 1.3750 -4.5000
vt 1.3750 5.5000
vt -0.3750 5.5000
vt -0.3750 -14.5000
vt 1.3750 -14.5000
vt 1.3750 15.5000
vt -0.3750 15.5000
vn 0.0000 -1.0000 0.0000
vn 1.0000 0.0000 0.0000
vn -0.0000 -0.0000 1.0000
vn -1.0000 0.0000 0.0000
vn 0.0000 0.0000 -1.0000
vn 0.0000 1.0000 0.0000
usemtl Material.005_floor_cobble.jpg.001
s off
f 13/25/8 14/26/8 15/27/8 16/28/8
f 13/25/9 17/29/9 18/30/9 14/31/9
f 14/32/10 18/33/10 19/34/10 15/35/10
f 15/36/11 19/37/11 20/38/11 16/28/11
f 17/39/12 13/40/12 16/41/12 20/42/12
usemtl Material.005
f 17/43/13 20/44/13 19/45/13 18/46/13
o Plane.007_Plane.009
v 27.000000 -5.500000 30.500000
v 37.000000 -5.500000 30.500000
v 27.000000 -5.500000 20.500000
v 37.000000 -5.500000 20.500000
vt -2.0000 -2.0000
vt 3.0000 -2.0000
vt 3.0000 3.0000
vt -2.0000 3.0000
vn 0.0000 1.0000 0.0000
usemtl None_floor_cobble.jpg.005
s off
f 21/47/14 22/48/14 24/49/14 23/50/14
o Plane.008_Plane.010
v 37.000000 -5.500000 30.000000
v 67.000000 -5.500000 30.000000
v 37.000000 -5.500000 0.000000
v 67.000000 -5.500000 0.000000
vt -7.0000 -7.0000
vt 8.0000 -7.0000
vt 8.0000 8.0000
vt -7.0000 8.0000
vn 0.0000 1.0000 0.0000
usemtl None_floor_cobble.jpg.006
s off
f 25/51/15 26/52/15 28/53/15 27/54/15
