# Blender v2.78 (sub 0) OBJ File: 'BACKUP12MapComplete.blend'
# www.blender.org
mtllib MapSky.mtl
o Plane_Plane.000
v -99.999992 100.000031 69.112228
v -100.000008 100.000031 -130.887772
v 99.999992 99.999969 -130.887787
v 100.000008 99.999969 69.112213
vt 0.0000 0.0000
vt 1.0000 0.0000
vt 1.0000 1.0000
vt 0.0000 1.0000
vn -0.0000 -1.0000 0.0000
usemtl None.002
s 1
f 1/1/1 2/2/1 3/3/1 4/4/1
o Plane_Plane.001_Plane_Plane.002
v -100.000000 90.000031 10.000000
v 100.000000 90.000031 10.000000
v 100.000000 89.999969 210.000000
v -100.000000 89.999969 210.000000
vt 0.0000 0.0000
vt 1.0000 0.0000
vt 1.0000 1.0000
vt 0.0000 1.0000
vn 0.0000 -1.0000 -0.0000
usemtl None.004
s 1
f 5/5/2 6/6/2 7/7/2 8/8/2
