# Blender v2.78 (sub 0) OBJ File: 'BACKUP12MapComplete.blend'
# www.blender.org
mtllib MapSpikedBars.mtl
o Plane.000_Plane.002
v 23.000000 -7.499998 -10.250001
v 27.000000 -7.499998 -10.250001
v 27.000000 2.500002 -10.250000
v 23.000000 2.500002 -10.250000
vt -1.5000 -4.5000
vt 2.5000 -4.5000
vt 2.5000 5.5000
vt -1.5000 5.5000
vn 0.0000 -0.0000 1.0000
usemtl None_spiked_bars.png.001
s 1
f 1/1/1 2/2/1 3/3/1 4/4/1
o Plane.058
v 23.000000 -0.000002 10.250000
v 27.000000 -0.000002 10.250000
v 27.000000 9.999998 10.250002
v 23.000000 9.999998 10.250002
vt -1.5000 -4.5000
vt 2.5000 -4.5000
vt 2.5000 5.5000
vt -1.5000 5.5000
vn 0.0000 -0.0000 1.0000
usemtl None.002
s 1
f 5/5/2 6/6/2 7/7/2 8/8/2
o Plane.118_Plane.120
v 10.500000 -0.750000 83.000000
v 10.500000 -4.750000 83.000000
v 10.500000 -0.750000 80.000000
v 10.500000 -4.750000 80.000000
vt 2.5000 -1.0000
vt 2.5000 2.0000
vt -1.5000 2.0000
vt -1.5000 -1.0000
vn 1.0000 0.0000 0.0000
usemtl None
s off
f 9/9/3 10/10/3 12/11/3 11/12/3
