# Blender v2.78 (sub 0) OBJ File: 'BACKUP9MapComplete.blend'
# www.blender.org
mtllib MapSpikedBars.mtl
o Plane.001
v 23.000000 0.000000 10.250000
v 27.000000 0.000000 10.250000
v 23.000000 10.000000 10.250000
v 27.000000 10.000000 10.250000
vt -1.5000 -4.5000
vt 2.5000 -4.5000
vt 2.5000 5.5000
vt -1.5000 5.5000
vn 0.0000 0.0000 1.0000
usemtl None
s off
f 1/1/1 2/2/1 4/3/1 3/4/1
o Plane.000_Plane.002
v 23.000000 -7.500000 -10.250000
v 27.000000 -7.500000 -10.250000
v 23.000000 2.500000 -10.250000
v 27.000000 2.500000 -10.250000
vt -1.5000 -4.5000
vt 2.5000 -4.5000
vt 2.5000 5.5000
vt -1.5000 5.5000
vn 0.0000 0.0000 1.0000
usemtl None_spiked_bars.png.001
s off
f 5/5/2 6/6/2 8/7/2 7/8/2
