# Blender v2.78 (sub 0) OBJ File: 'BACKUP9MapComplete.blend'
# www.blender.org
mtllib MapTorches.mtl
o Plane_Plane.007
v -100.000000 150.000015 -100.000000
v 100.000000 150.000015 -100.000000
v -100.000000 149.999985 100.000000
v 100.000000 149.999985 100.000000
vt 0.0000 0.0000
vt 1.0000 0.0000
vt 1.0000 1.0000
vt 0.0000 1.0000
vn 0.0000 -1.0000 -0.0000
usemtl None
s off
f 1/1/1 2/2/1 4/3/1 3/4/1
o Plane.000_Plane.002
v 23.000000 -7.500000 -10.250000
v 27.000000 -7.500000 -10.250000
v 23.000000 2.500000 -10.250000
v 27.000000 2.500000 -10.250000
vt -1.5000 -4.5000
vt 2.5000 -4.5000
vt 2.5000 5.5000
vt -1.5000 5.5000
vn 0.0000 0.0000 1.0000
usemtl None_spiked_bars.png.001
s off
f 5/5/2 6/6/2 8/7/2 7/8/2
o Cube.015_Cube.038
v 27.760000 -0.215000 -0.140000
v 27.760000 -0.195000 -0.140000
v 28.010000 -0.215000 -0.140000
v 28.010000 -0.195000 -0.140000
v 27.760000 -0.215000 -0.120000
v 27.760000 -0.195000 -0.120000
v 28.010000 -0.215000 -0.120000
v 28.010000 -0.195000 -0.120000
v 27.603758 -0.113302 -0.075000
v 27.553757 -0.026699 -0.075000
v 27.621078 -0.103302 -0.075000
v 27.571077 -0.016699 -0.075000
v 27.603758 -0.113302 -0.055000
v 27.553757 -0.026699 -0.055000
v 27.621078 -0.103302 -0.055000
v 27.571077 -0.016699 -0.055000
v 27.899559 -0.525644 -0.155000
v 27.649559 -0.092631 -0.155000
v 27.942860 -0.500644 -0.155000
v 27.692860 -0.067631 -0.155000
v 27.899559 -0.525644 -0.105000
v 27.649559 -0.092631 -0.105000
v 27.942860 -0.500644 -0.105000
v 27.692860 -0.067631 -0.105000
v 27.700670 -0.011160 -0.205000
v 27.695671 -0.002500 -0.205000
v 27.709332 -0.006160 -0.205000
v 27.704330 0.002500 -0.205000
v 27.700670 -0.011160 -0.055000
v 27.695671 -0.002500 -0.055000
v 27.709332 -0.006160 -0.055000
v 27.704330 0.002500 -0.055000
v 27.716341 -0.048301 -0.205000
v 27.666340 0.038302 -0.205000
v 27.733662 -0.038301 -0.205000
v 27.683661 0.048302 -0.205000
v 27.716341 -0.048301 -0.185000
v 27.666340 0.038302 -0.185000
v 27.733662 -0.038301 -0.185000
v 27.683661 0.048302 -0.185000
v 27.716341 -0.048301 -0.075000
v 27.666340 0.038301 -0.075000
v 27.733662 -0.038301 -0.075000
v 27.683661 0.048301 -0.075000
v 27.716341 -0.048301 -0.055000
v 27.666340 0.038301 -0.055000
v 27.733662 -0.038301 -0.055000
v 27.683661 0.048301 -0.055000
v 27.603758 -0.113301 -0.205000
v 27.553757 -0.026698 -0.205000
v 27.621077 -0.103301 -0.205000
v 27.571077 -0.016698 -0.205000
v 27.603758 -0.113301 -0.185000
v 27.553757 -0.026698 -0.185000
v 27.621078 -0.103301 -0.185000
v 27.571077 -0.016698 -0.185000
v 27.608757 -0.121961 -0.205000
v 27.603758 -0.113301 -0.205000
v 27.738661 -0.046961 -0.205000
v 27.733662 -0.038301 -0.205000
v 27.608757 -0.121962 -0.055000
v 27.603758 -0.113301 -0.055000
v 27.738661 -0.046962 -0.055000
v 27.733662 -0.038301 -0.055000
v 27.583757 -0.078661 -0.070000
v 27.578758 -0.070000 -0.070000
v 27.713661 -0.003661 -0.070000
v 27.708662 0.005000 -0.070000
v 27.583757 -0.078661 -0.060000
v 27.578758 -0.070000 -0.060000
v 27.713661 -0.003661 -0.060000
v 27.708662 0.005000 -0.060000
v 27.583757 -0.078660 -0.200000
v 27.578756 -0.070000 -0.200000
v 27.713661 -0.003660 -0.200000
v 27.708660 0.005000 -0.200000
v 27.583757 -0.078660 -0.190000
v 27.578756 -0.070000 -0.190000
v 27.713661 -0.003660 -0.190000
v 27.708660 0.005000 -0.190000
v 27.588087 -0.076160 -0.205000
v 27.583088 -0.067500 -0.205000
v 27.596748 -0.071160 -0.205000
v 27.591747 -0.062500 -0.205000
v 27.588087 -0.076160 -0.055000
v 27.583088 -0.067500 -0.055000
v 27.596748 -0.071160 -0.055000
v 27.591747 -0.062500 -0.055000
vt 0.7556 0.3380
vt 1.2556 0.5112
vt 12.0809 -0.7388
vt 11.5809 -0.9120
vt 0.6000 0.5809
vt 0.6000 1.0809
vt 1.6000 1.0809
vt 1.6000 0.5809
vt 0.5809 0.0880
vt 1.0809 0.2612
vt -9.7444 1.5112
vt -10.2444 1.3380
vt 0.6000 0.7556
vt 0.6000 1.2556
vt -0.4000 1.2556
vt -0.4000 0.7556
vt 1.6000 -10.2444
vt 0.6000 -10.2444
vt 0.6000 0.0809
vt -0.4000 0.0809
vt -0.4000 -10.7444
vt 0.6000 -10.7444
vt 0.5325 1.0000
vt 0.5325 2.0000
vt 1.5325 2.0000
vt 1.5325 1.0000
vt 0.8500 1.0000
vt 0.8500 2.0000
vt 1.8500 2.0000
vt 1.8500 1.0000
vt 0.5325 1.0000
vt 0.5325 2.0000
vt -0.4675 2.0000
vt -0.4675 1.0000
vt 0.8500 1.0000
vt 0.8500 2.0000
vt -0.1500 2.0000
vt -0.1500 1.0000
vt 0.8500 0.5325
vt 1.8500 0.5325
vt 1.8500 -0.4675
vt 0.8500 -0.4675
vt 0.8500 0.5325
vt -0.1500 0.5325
vt -0.1500 -0.4675
vt 0.8500 -0.4675
vt 0.0325 0.9500
vt 0.0325 5.9500
vt 2.5325 5.9500
vt 2.5325 0.9500
vt 0.8500 0.9500
vt 0.8500 5.9500
vt 3.3500 5.9500
vt 3.3500 0.9500
vt 0.5325 0.9500
vt 0.5325 5.9500
vt -1.9675 5.9500
vt -1.9675 0.9500
vt 0.3500 0.9500
vt 0.3500 5.9500
vt -2.1500 5.9500
vt -2.1500 0.9500
vt 0.8500 0.5325
vt 3.3500 0.5325
vt 3.3500 -1.9675
vt 0.8500 -1.9675
vt 0.3500 0.5325
vt -2.1500 0.5325
vt -2.1500 -1.9675
vt 0.3500 -1.9675
vt 0.2825 0.4000
vt 0.2825 0.5000
vt 0.7825 0.5000
vt 0.7825 0.4000
vt 0.3500 0.4000
vt 0.3500 0.5000
vt 7.8500 0.5000
vt 7.8500 0.4000
vt 0.7825 0.4000
vt 0.7825 0.5000
vt 0.2825 0.5000
vt 0.2825 0.4000
vt 0.8500 0.4000
vt 0.8500 0.5000
vt -6.6500 0.5000
vt -6.6500 0.4000
vt 0.3500 0.7825
vt 7.8500 0.7825
vt 7.8500 0.2825
vt 0.3500 0.2825
vt 0.8500 0.7825
vt -6.6500 0.7825
vt -6.6500 0.2825
vt 0.8500 0.2825
vt 0.0325 0.0000
vt 0.0325 1.0000
vt 1.0325 1.0000
vt 1.0325 0.0000
vt 0.3500 0.0000
vt 0.3500 1.0000
vt 1.3500 1.0000
vt 1.3500 0.0000
vt 0.0325 0.0000
vt 0.0325 1.0000
vt -0.9675 1.0000
vt -0.9675 0.0000
vt 0.3500 0.0000
vt 0.3500 1.0000
vt -0.6500 1.0000
vt -0.6500 0.0000
vt 0.3500 0.0325
vt 1.3500 0.0325
vt 1.3500 -0.9675
vt 0.3500 -0.9675
vt 0.3500 0.0325
vt -0.6500 0.0325
vt -0.6500 -0.9675
vt 0.3500 -0.9675
vt 0.0325 0.0000
vt 0.0325 1.0000
vt 1.0325 1.0000
vt 1.0325 0.0000
vt 0.8500 0.0000
vt 0.8500 1.0000
vt 1.8500 1.0000
vt 1.8500 0.0000
vt 0.0325 0.0000
vt 0.0325 1.0000
vt -0.9675 1.0000
vt -0.9675 0.0000
vt 0.8500 0.0000
vt 0.8500 1.0000
vt -0.1500 1.0000
vt -0.1500 0.0000
vt 0.8500 0.0325
vt 1.8500 0.0325
vt 1.8500 -0.9675
vt 0.8500 -0.9675
vt 0.8500 0.0325
vt -0.1500 0.0325
vt -0.1500 -0.9675
vt 0.8500 -0.9675
vt 0.5325 0.0000
vt 0.5325 1.0000
vt 1.5325 1.0000
vt 1.5325 0.0000
vt 0.3500 0.0000
vt 0.3500 1.0000
vt 1.3500 1.0000
vt 1.3500 0.0000
vt 0.5325 0.0000
vt 0.5325 1.0000
vt -0.4675 1.0000
vt -0.4675 0.0000
vt 0.3500 0.0000
vt 0.3500 1.0000
vt -0.6500 1.0000
vt -0.6500 0.0000
vt 0.3500 0.5325
vt 1.3500 0.5325
vt 1.3500 -0.4675
vt 0.3500 -0.4675
vt 0.3500 0.5325
vt -0.6500 0.5325
vt -0.6500 -0.4675
vt 0.3500 -0.4675
vt 0.5325 0.9000
vt 0.5325 1.0000
vt 8.0325 1.0000
vt 8.0325 0.9000
vt 0.3500 0.9000
vt 0.3500 1.0000
vt 7.8500 1.0000
vt 7.8500 0.9000
vt 0.0325 0.9000
vt 0.0325 1.0000
vt -7.4675 1.0000
vt -7.4675 0.9000
vt 0.8500 0.9000
vt 0.8500 1.0000
vt -6.6500 1.0000
vt -6.6500 0.9000
vt 0.3500 0.0325
vt 7.8500 0.0325
vt 7.8500 -7.4675
vt 0.3500 -7.4675
vt 0.8500 0.0325
vt -6.6500 0.0325
vt -6.6500 -7.4675
vt 0.8500 -7.4675
vt 0.5325 0.4000
vt 0.5325 0.5000
vt 8.0325 0.5000
vt 8.0325 0.4000
vt 0.1000 0.4000
vt 0.1000 0.5000
vt 0.6000 0.5000
vt 0.6000 0.4000
vt 0.0325 0.4000
vt 0.0325 0.5000
vt -7.4675 0.5000
vt -7.4675 0.4000
vt 0.6000 0.4000
vt 0.6000 0.5000
vt 0.1000 0.5000
vt 0.1000 0.4000
vt 0.1000 0.0325
vt 0.6000 0.0325
vt 0.6000 -7.4675
vt 0.1000 -7.4675
vt 0.6000 0.0325
vt 0.1000 0.0325
vt 0.1000 -7.4675
vt 0.6000 -7.4675
vt 0.5325 0.4000
vt 0.5325 0.5000
vt 8.0325 0.5000
vt 8.0325 0.4000
vt 0.6000 0.4000
vt 0.6000 0.5000
vt 1.1000 0.5000
vt 1.1000 0.4000
vt 0.0325 0.4000
vt 0.0325 0.5000
vt -7.4675 0.5000
vt -7.4675 0.4000
vt 0.1000 0.4000
vt 0.1000 0.5000
vt -0.4000 0.5000
vt -0.4000 0.4000
vt 0.6000 0.0325
vt 1.1000 0.0325
vt 1.1000 -7.4675
vt 0.6000 -7.4675
vt 0.1000 0.0325
vt -0.4000 0.0325
vt -0.4000 -7.4675
vt 0.1000 -7.4675
vt 0.7825 0.4000
vt 0.7825 0.5000
vt 1.2825 0.5000
vt 1.2825 0.4000
vt 0.3500 0.4000
vt 0.3500 0.5000
vt 7.8500 0.5000
vt 7.8500 0.4000
vt 0.2825 0.4000
vt 0.2825 0.5000
vt -0.2175 0.5000
vt -0.2175 0.4000
vt 0.8500 0.4000
vt 0.8500 0.5000
vt -6.6500 0.5000
vt -6.6500 0.4000
vt 0.3500 0.2825
vt 7.8500 0.2825
vt 7.8500 -0.2175
vt 0.3500 -0.2175
vt 0.8500 0.2825
vt -6.6500 0.2825
vt -6.6500 -0.2175
vt 0.8500 -0.2175
vn 0.0000 0.0000 -1.0000
vn 1.0000 0.0000 0.0000
vn -0.0000 0.0000 1.0000
vn -1.0000 0.0000 0.0000
vn 0.0000 -1.0000 -0.0000
vn -0.0000 1.0000 0.0000
vn 0.8660 0.5000 0.0000
vn -0.8660 -0.5000 -0.0000
vn 0.5000 -0.8660 -0.0000
vn -0.5000 0.8660 0.0000
vn 0.5001 -0.8660 0.0000
vn -0.5001 0.8660 0.0000
vn -0.8661 -0.4998 -0.0000
vn 0.8661 0.4998 0.0000
vn 0.8660 0.5001 0.0000
vn -0.8660 -0.5001 -0.0000
vn 0.4999 -0.8661 -0.0000
usemtl None_metal_64.png
s off
f 9/9/3 10/10/3 12/11/3 11/12/3
f 11/13/4 12/14/4 16/15/4 15/16/4
f 15/17/5 16/18/5 14/19/5 13/20/5
f 13/21/6 14/22/6 10/23/6 9/24/6
f 11/13/7 15/16/7 13/25/7 9/26/7
f 16/27/8 12/28/8 10/29/8 14/30/8
f 17/31/3 18/32/3 20/33/3 19/34/3
f 19/35/9 20/36/9 24/37/9 23/38/9
f 23/39/5 24/40/5 22/41/5 21/42/5
f 21/43/10 22/44/10 18/45/10 17/46/10
f 19/47/11 23/48/11 21/49/11 17/50/11
f 24/51/12 20/52/12 18/53/12 22/54/12
f 25/55/3 26/56/3 28/57/3 27/58/3
f 27/59/9 28/60/9 32/61/9 31/62/9
f 31/63/5 32/64/5 30/65/5 29/66/5
f 29/67/10 30/68/10 26/69/10 25/70/10
f 27/71/11 31/72/11 29/73/11 25/74/11
f 32/75/12 28/76/12 26/77/12 30/78/12
f 33/79/3 34/80/3 36/81/3 35/82/3
f 35/83/9 36/84/9 40/85/9 39/86/9
f 39/87/5 40/88/5 38/89/5 37/90/5
f 37/91/10 38/92/10 34/93/10 33/94/10
f 35/95/11 39/96/11 37/97/11 33/98/11
f 40/99/12 36/100/12 34/101/12 38/102/12
f 41/103/3 42/104/3 44/105/3 43/106/3
f 43/107/9 44/108/9 48/109/9 47/110/9
f 47/111/5 48/112/5 46/113/5 45/114/5
f 45/115/10 46/116/10 42/117/10 41/118/10
f 43/119/11 47/120/11 45/121/11 41/122/11
f 48/123/12 44/124/12 42/125/12 46/126/12
f 49/127/3 50/128/3 52/129/3 51/130/3
f 51/131/9 52/132/9 56/133/9 55/134/9
f 55/135/5 56/136/5 54/137/5 53/138/5
f 53/139/10 54/140/10 50/141/10 49/142/10
f 51/143/13 55/144/13 53/145/13 49/146/13
f 56/147/12 52/148/12 50/149/12 54/150/12
f 57/151/3 58/152/3 60/153/3 59/154/3
f 59/155/9 60/156/9 64/157/9 63/158/9
f 63/159/5 64/160/5 62/161/5 61/162/5
f 61/163/10 62/164/10 58/165/10 57/166/10
f 59/167/11 63/168/11 61/169/11 57/170/11
f 64/171/14 60/172/14 58/173/14 62/174/14
f 65/175/3 66/176/3 68/177/3 67/178/3
f 67/179/9 68/180/9 72/181/9 71/182/9
f 71/183/5 72/184/5 70/185/5 69/186/5
f 69/187/15 70/188/15 66/189/15 65/190/15
f 67/191/11 71/192/11 69/193/11 65/194/11
f 72/195/12 68/196/12 66/197/12 70/198/12
f 73/199/3 74/200/3 76/201/3 75/202/3
f 75/203/16 76/204/16 80/205/16 79/206/16
f 79/207/5 80/208/5 78/209/5 77/210/5
f 77/211/15 78/212/15 74/213/15 73/214/15
f 75/215/11 79/216/11 77/217/11 73/218/11
f 80/219/12 76/220/12 74/221/12 78/222/12
f 81/223/3 82/224/3 84/225/3 83/226/3
f 83/227/17 84/228/17 88/229/17 87/230/17
f 87/231/5 88/232/5 86/233/5 85/234/5
f 85/235/18 86/236/18 82/237/18 81/238/18
f 83/239/11 87/240/11 85/241/11 81/242/11
f 88/243/12 84/244/12 82/245/12 86/246/12
f 89/247/3 90/248/3 92/249/3 91/250/3
f 91/251/9 92/252/9 96/253/9 95/254/9
f 95/255/5 96/256/5 94/257/5 93/258/5
f 93/259/15 94/260/15 90/261/15 89/262/15
f 91/263/19 95/264/19 93/265/19 89/266/19
f 96/267/12 92/268/12 90/269/12 94/270/12
