# Blender v2.78 (sub 0) OBJ File: 'BACKUP12MapComplete.blend'
# www.blender.org
mtllib MapWebs.mtl
o Plane.009_Plane.002
v 102.259583 -6.271848 92.659416
v 89.075851 -6.271855 101.725243
v 88.316269 4.646156 100.620644
v 101.500000 4.646160 91.554817
vt 0.0000 0.0000
vt 1.0000 0.0000
vt 1.0000 1.0000
vt 0.0000 1.0000
vn -0.5624 -0.1219 -0.8178
usemtl None_web.png.016
s 1
f 1/1/1 2/2/1 3/3/1 4/4/1
o Plane.043
v 71.228867 -10.091780 48.715866
v 78.124397 -10.403072 47.500000
v 78.407288 -5.607580 47.876564
v 71.511757 -5.296288 49.092430
vt 0.0000 0.0000
vt 1.0000 0.0000
vt 1.0000 1.0000
vt 0.0000 1.0000
vn 0.1692 -0.0871 0.9817
usemtl None_web.png.013
s 1
f 5/5/2 6/6/2 7/7/2 8/8/2
o Plane.037
v 68.856323 -7.832291 104.307022
v 78.500000 -8.510045 92.500000
v 79.501816 1.930928 92.718903
v 69.858139 2.608681 104.525925
vt 0.0000 0.0000
vt 1.0000 0.0000
vt 1.0000 1.0000
vt 0.0000 1.0000
vn 0.7691 -0.0871 0.6332
usemtl None_web.png.007
s 1
f 9/9/3 10/10/3 11/11/3 12/12/3
o Plane.041
v 69.622383 -0.987870 91.280846
v 79.604263 -1.438492 89.520767
v 80.013771 5.503399 90.065880
v 70.031891 5.954022 91.825958
vt 0.0000 0.0000
vt 1.0000 0.0000
vt 1.0000 1.0000
vt 0.0000 1.0000
vn 0.1692 -0.0871 0.9817
usemtl None_web.png.000
s 1
f 13/13/4 14/14/4 15/15/4 16/16/4
o Plane.010_Plane.000
v 109.540825 -9.582638 91.054359
v 100.090599 -9.158619 89.534996
v 100.374992 -2.578191 89.602547
v 109.825218 -3.002206 91.121910
vt 0.0000 0.0000
vt 1.0000 0.0000
vt 1.0000 1.0000
vt 0.0000 1.0000
vn 0.1589 0.0033 -0.9873
usemtl None_web.png.023
s 1
f 17/17/5 18/18/5 19/19/5 20/20/5
o Plane.038
v 101.191986 0.624930 93.280060
v 88.008255 0.624922 102.345886
v 86.395096 -10.000259 100.000000
v 99.578827 -10.000256 90.934174
vt 0.0000 0.0000
vt 1.0000 0.0000
vt 1.0000 1.0000
vt 0.0000 1.0000
vn 0.5473 -0.2588 0.7959
usemtl None_web.png.021
s 1
f 21/21/6 22/22/6 23/23/6 24/24/6
o Plane.039
v 121.796425 -4.851595 83.294861
v 108.612694 -4.851605 92.360687
v 106.978203 5.763420 89.983780
v 120.161934 5.763430 80.917953
vt 0.0000 0.0000
vt 1.0000 0.0000
vt 1.0000 1.0000
vt 0.0000 1.0000
vn -0.5468 -0.2622 -0.7951
usemtl None_web.png.022
s 1
f 25/25/7 26/26/7 27/27/7 28/28/7
o Plane.044
v 59.638168 -10.420111 91.373444
v 69.437386 -11.097879 103.051697
v 69.035309 -0.656907 103.995026
v 59.236092 0.020862 92.316772
vt 0.0000 0.0000
vt 1.0000 0.0000
vt 1.0000 1.0000
vt 0.0000 1.0000
vn -0.7656 -0.0871 0.6374
usemtl None_web.png.018
s 1
f 29/29/8 30/30/8 31/31/8 32/32/8
o Plane.042
v 109.540825 -3.826260 91.054359
v 100.090599 -3.402245 89.534996
v 100.374992 3.178186 89.602547
v 109.825218 2.754170 91.121910
vt 0.0000 0.0000
vt 1.0000 0.0000
vt 1.0000 1.0000
vt 0.0000 1.0000
vn 0.1589 0.0033 -0.9873
usemtl None.003
s 1
f 33/33/9 34/34/9 35/35/9 36/36/9
o Plane.045
v 119.740196 -11.326258 81.992607
v 106.580154 -8.767113 90.725533
v 109.034431 1.940938 91.286034
v 122.194473 -0.618204 82.553108
vt 0.0000 0.0000
vt 1.0000 0.0000
vt 1.0000 1.0000
vt 0.0000 1.0000
vn -0.5232 0.1637 -0.8364
usemtl None__1.000
s off
f 37/37/10 38/38/10 39/39/10 40/40/10
o Plane.018_Plane.015
v 129.596237 17.847931 55.825859
v 87.909332 17.847923 27.707678
v 126.239410 -16.196781 60.802574
v 84.552498 -16.196789 32.684395
vt 0.0000 0.0000
vt 1.0000 0.0000
vt 1.0000 1.0000
vt 0.0000 1.0000
vn -0.5507 0.1736 0.8164
usemtl None
s off
f 41/41/11 42/42/11 44/43/11 43/44/11
