# Blender v2.78 (sub 0) OBJ File: 'BACKUP12MapComplete.blend'
# www.blender.org
mtllib MapWebs.mtl
o Plane.035
v 71.228867 -10.091757 48.715866
v 78.124397 -10.403049 47.500000
v 78.407288 -5.607557 47.876564
v 71.511757 -5.296264 49.092430
vt 0.0000 0.0000
vt 1.0000 0.0000
vt 1.0000 1.0000
vt 0.0000 1.0000
vn 0.1692 -0.0871 0.9817
usemtl None_web.png.005
s 1
f 1/1/1 2/2/1 3/3/1 4/4/1
o Plane.034
v 121.796425 -4.851555 83.294861
v 108.612694 -4.851560 92.360687
v 106.978203 5.763465 89.983780
v 120.161934 5.763470 80.917953
vt 0.0000 0.0000
vt 1.0000 0.0000
vt 1.0000 1.0000
vt 0.0000 1.0000
vn -0.5468 -0.2622 -0.7951
usemtl None_web.png.009
s 1
f 5/5/2 6/6/2 7/7/2 8/8/2
o Plane.032
v 101.191986 0.624975 93.280060
v 88.008255 0.624973 102.345886
v 86.395096 -10.000211 100.000000
v 99.578827 -10.000210 90.934174
vt 0.0000 0.0000
vt 1.0000 0.0000
vt 1.0000 1.0000
vt 0.0000 1.0000
vn 0.5473 -0.2588 0.7959
usemtl None_web.png.008
s 1
f 9/9/3 10/10/3 11/11/3 12/12/3
o Plane.031
v 111.561668 1.771278 49.605015
v 98.297066 1.771276 40.657928
v 99.889091 -8.853908 38.297649
v 113.153694 -8.853906 47.244736
vt 0.0000 0.0000
vt 1.0000 0.0000
vt 1.0000 1.0000
vt 0.0000 1.0000
vn -0.5401 -0.2588 0.8008
usemtl None_web.png.011
s 1
f 13/13/4 14/14/4 15/15/4 16/16/4
o Plane.030
v 121.729141 -9.534067 57.663605
v 108.500000 -10.244696 48.692268
v 110.122513 0.148852 45.476425
v 123.351654 0.859480 54.447762
vt 0.0000 0.0000
vt 1.0000 0.0000
vt 1.0000 1.0000
vt 0.0000 1.0000
vn 0.5428 -0.3244 -0.7747
usemtl None_web.png.004
s 1
f 17/17/5 18/18/5 19/19/5 20/20/5
o Plane.029
v 59.638168 -10.420065 91.373444
v 69.437386 -11.097828 103.051697
v 69.035309 -0.656856 103.995026
v 59.236092 0.020907 92.316772
vt 0.0000 0.0000
vt 1.0000 0.0000
vt 1.0000 1.0000
vt 0.0000 1.0000
vn -0.7656 -0.0871 0.6374
usemtl None_web.png.003
s 1
f 21/21/6 22/22/6 23/23/6 24/24/6
o Plane.028
v 69.622383 -0.987825 91.280846
v 79.604263 -1.438448 89.520767
v 80.013771 5.503444 90.065880
v 70.031891 5.954067 91.825958
vt 0.0000 0.0000
vt 1.0000 0.0000
vt 1.0000 1.0000
vt 0.0000 1.0000
vn 0.1692 -0.0871 0.9817
usemtl None_web.png.012
s 1
f 25/25/7 26/26/7 27/27/7 28/28/7
o Plane.010_Plane.003
v 109.540825 -9.582592 91.054359
v 100.090599 -9.158576 89.534996
v 100.374992 -2.578146 89.602547
v 109.825218 -3.002161 91.121910
vt 0.0000 0.0000
vt 1.0000 0.0000
vt 1.0000 1.0000
vt 0.0000 1.0000
vn 0.1589 0.0033 -0.9873
usemtl None_web.png.002
s 1
f 29/29/8 30/30/8 31/31/8 32/32/8
o Plane.027
v 99.139610 1.771278 52.076981
v 96.361244 1.771277 36.320061
v 99.165001 -8.853907 35.825684
v 101.943367 -8.853907 51.582603
vt 0.0000 0.0000
vt 1.0000 0.0000
vt 1.0000 1.0000
vt 0.0000 1.0000
vn -0.9513 -0.2588 0.1677
usemtl None_web.png.010
s 1
f 33/33/9 34/34/9 35/35/9 36/36/9
o Plane.026
v 109.540825 -3.826215 91.054359
v 100.090599 -3.402200 89.534996
v 100.374992 3.178231 89.602547
v 109.825218 2.754215 91.121910
vt 0.0000 0.0000
vt 1.0000 0.0000
vt 1.0000 1.0000
vt 0.0000 1.0000
vn 0.1589 0.0033 -0.9873
usemtl None
s 1
f 37/37/10 38/38/10 39/39/10 40/40/10
o Plane.009_Plane.001
v 102.259583 -6.271803 92.659416
v 89.075851 -6.271805 101.725243
v 88.316269 4.646204 100.620644
v 101.500000 4.646205 91.554817
vt 0.0000 0.0000
vt 1.0000 0.0000
vt 1.0000 1.0000
vt 0.0000 1.0000
vn -0.5624 -0.1219 -0.8178
usemtl None_web.png.001
s 1
f 41/41/11 42/42/11 43/43/11 44/44/11
o Plane.025
v 68.856323 -7.832240 104.307022
v 78.500000 -8.510000 92.500000
v 79.501816 1.930973 92.718903
v 69.858139 2.608732 104.525925
vt 0.0000 0.0000
vt 1.0000 0.0000
vt 1.0000 1.0000
vt 0.0000 1.0000
vn 0.7691 -0.0871 0.6332
usemtl None_web.png.014
s 1
f 45/45/12 46/46/12 47/47/12 48/48/12
o Plane.024
v 113.931305 6.008132 47.777912
v 101.239449 6.008130 39.217148
v 100.217438 -4.357005 40.732342
v 112.909294 -4.357004 49.293106
vt 0.0000 0.0000
vt 1.0000 0.0000
vt 1.0000 1.0000
vt 0.0000 1.0000
vn -0.5507 0.1736 0.8164
usemtl None_web.png.006
s 1
f 49/49/13 50/50/13 51/51/13 52/52/13
o Plane.017
v 119.740196 -11.326218 81.992607
v 106.580154 -8.767070 90.725533
v 122.194473 -0.618165 82.553108
v 109.034431 1.940983 91.286034
vt 0.0000 0.0000
vt 1.0000 0.0000
vt 1.0000 1.0000
vt 0.0000 1.0000
vn -0.5232 0.1637 -0.8364
usemtl None_  1
s off
f 53/53/14 54/54/14 56/55/14 55/56/14
