# Blender v2.78 (sub 0) OBJ File: 'spider_modified.blend'
# www.blender.org
mtllib black_widow_abdomen.mtl
o initialShadingGroup_SpiderHalf2
v -0.007659 0.411057 0.309084
v 0.171649 0.411057 -0.006787
v 0.171649 0.732171 0.907068
v -0.007659 0.732171 1.222940
v 0.543708 1.053285 0.907132
v -0.007659 1.053284 1.223003
v 0.543708 1.374398 0.907132
v -0.007659 1.374398 1.223003
v 0.209032 1.513023 0.347252
v -0.007659 1.513023 0.663124
v 0.348067 1.917273 -0.120821
v -0.007659 1.917273 -0.088272
v -0.007659 1.695513 -2.178297
v 0.356436 1.695513 -2.262529
v 1.303322 3.030572 -3.051762
v -0.007659 3.422025 -2.766571
v -0.007659 3.599066 -3.954245
v 1.515304 2.869262 -4.282465
v 1.207418 2.737580 -5.550294
v -0.007659 3.305484 -5.518646
v -0.007659 2.109108 -6.741784
v 0.393132 1.945027 -6.682987
v 0.891167 1.374400 -6.727617
v -0.007659 1.374400 -7.051657
v 0.891167 1.053286 -6.914524
v -0.007659 1.053286 -7.116006
v 0.590475 0.732172 -6.869396
v -0.007659 0.732172 -7.104938
v 0.131016 0.411058 -6.727617
v -0.007659 0.411058 -6.835064
v -0.007659 0.260913 -5.500992
v 0.498433 0.298167 -5.587319
v 1.031958 0.376096 -4.282465
v -0.007659 0.187961 -3.954245
v -0.007659 0.203907 -3.191790
v 0.683506 0.521541 -3.468078
v 0.319054 0.411057 -2.262529
v -0.007659 0.411057 -2.178296
v -0.007659 0.189296 -0.088274
v 0.310685 0.189296 -0.120824
v 1.211358 0.687479 -5.609340
v 1.505572 0.721094 -4.282465
v 1.296343 0.642703 -3.608986
v 0.663951 0.740451 -2.232038
v 0.689766 0.654380 -0.080412
v 1.578615 0.973415 -5.616349
v 1.825406 1.036198 -4.282465
v 1.525695 1.056528 -3.526418
v 0.718951 1.055377 -2.181264
v 0.814766 1.125377 -0.160408
v 1.669957 1.791794 -5.587319
v 1.902658 1.864844 -4.282464
v 1.581092 1.972245 -3.306235
v 0.630234 1.260559 -2.278264
v 0.676049 1.438658 -0.128622
v -0.007659 0.134821 -0.568093
v 0.364531 0.134822 -0.620507
v 0.756689 0.530761 -0.585253
v 0.762972 1.496897 -0.712842
v 0.401913 1.971748 -0.620505
v -0.007659 1.971748 -0.568091
v -0.007659 0.278570 -1.207242
v 0.332512 0.278570 -1.272757
v 0.810680 0.566698 -1.261379
v 0.716963 1.448424 -1.333872
v 0.369895 1.827999 -1.272757
v -0.007659 1.827999 -1.207241
v 0.398708 0.200975 -1.730302
v -0.007659 0.200975 -1.640840
v 0.783778 0.547299 -1.640151
v 0.436090 1.905594 -1.730301
v 0.695061 1.429164 -1.740213
v -0.007659 1.905594 -1.640839
v -0.186967 0.732171 0.907068
v -0.186967 0.411057 -0.006787
v -0.559026 1.053285 0.907132
v -0.559026 1.374398 0.907132
v -0.224349 1.513023 0.347252
v -0.363384 1.917273 -0.120821
v -1.318639 3.030572 -3.051762
v -0.371754 1.695513 -2.262529
v -1.222735 2.737580 -5.550294
v -1.530621 2.869262 -4.282465
v -0.906484 1.374400 -6.727617
v -0.408449 1.945027 -6.682987
v -0.906484 1.053286 -6.914524
v -0.605792 0.732172 -6.869396
v -0.146333 0.411058 -6.727617
v -1.047275 0.376096 -4.282465
v -0.513751 0.298167 -5.587319
v -0.334372 0.411057 -2.262529
v -0.698823 0.521541 -3.468078
v -0.326002 0.189296 -0.120824
v -1.520889 0.721094 -4.282465
v -1.226675 0.687479 -5.609340
v -0.679268 0.740451 -2.232038
v -1.311661 0.642703 -3.608986
v -0.705083 0.654380 -0.080412
v -1.840723 1.036198 -4.282465
v -1.593932 0.973415 -5.616349
v -0.734268 1.055377 -2.181264
v -1.541013 1.056528 -3.526418
v -0.830083 1.125377 -0.160408
v -1.917975 1.864844 -4.282464
v -1.685274 1.791794 -5.587319
v -0.645551 1.260559 -2.278264
v -1.596410 1.972245 -3.306235
v -0.691367 1.438658 -0.128622
v -0.379848 0.134822 -0.620507
v -0.772006 0.530761 -0.585253
v -0.417230 1.971748 -0.620505
v -0.778290 1.496897 -0.712842
v -0.347830 0.278570 -1.272757
v -0.825997 0.566698 -1.261379
v -0.385212 1.827999 -1.272757
v -0.732280 1.448424 -1.333872
v -0.414025 0.200975 -1.730302
v -0.799095 0.547299 -1.640151
v -0.451407 1.905594 -1.730301
v -0.710378 1.429164 -1.740213
vt 0.0000 0.0000
vt 0.0000 0.0000
vt 0.0000 0.0000
vt 0.0000 0.0000
vt 0.0000 0.0000
vt 0.0000 0.0000
vt 0.0000 0.0000
vt 0.0000 0.0000
vt 0.0000 0.0000
vt 0.0000 0.0000
vt 0.0000 0.0000
vt 0.0000 0.0000
vt 0.0000 0.0000
vt 0.0000 0.0000
vt 0.0000 0.0000
vt 0.0000 0.0000
vt 0.0000 0.0000
vt 0.0000 0.0000
vt 0.0000 0.0000
vt 0.0000 0.0000
vt 0.0000 0.0000
vt 0.0000 0.0000
vt 0.0000 0.0000
vt 0.0000 0.0000
vt 0.0549 0.0373
vt 0.0768 0.0371
vt 0.0280 0.0694
vt 0.0064 0.0700
vt 0.0383 0.0947
vt 0.0057 0.0877
vt 0.0344 0.1108
vt 0.0020 0.1066
vt 0.0471 0.1412
vt 0.0225 0.1380
vt 0.0769 0.1623
vt 0.0626 0.1758
vt 0.1930 0.1900
vt 0.2042 0.1713
vt 0.2933 0.2160
vt 0.2649 0.2792
vt 0.3453 0.2930
vt 0.3518 0.2009
vt 0.4184 0.1928
vt 0.4417 0.2635
vt 0.5142 0.1852
vt 0.5011 0.1635
vt 0.4928 0.1164
vt 0.5433 0.1515
vt 0.5408 0.0772
vt 0.4905 0.0947
vt 0.5292 0.0613
vt 0.4901 0.0684
vt 0.5173 0.0459
vt 0.4885 0.0348
vt 0.4974 0.0299
vt 0.4153 0.0020
vt 0.4168 0.0310
vt 0.3363 0.0564
vt 0.3122 0.0032
vt 0.2630 0.0158
vt 0.2838 0.0528
vt 0.2140 0.0544
vt 0.2105 0.0347
vt 0.0821 0.0198
vt 0.0932 0.0330
vt 0.4139 0.0743
vt 0.3382 0.0857
vt 0.2994 0.0817
vt 0.2101 0.0882
vt 0.0925 0.0639
vt 0.4136 0.0981
vt 0.3410 0.1070
vt 0.2963 0.1077
vt 0.2049 0.1131
vt 0.0927 0.0872
vt 0.4149 0.1385
vt 0.3446 0.1466
vt 0.2923 0.1577
vt 0.2085 0.1320
vt 0.0898 0.1106
vt 0.0852 0.1289
vt 0.1155 0.0086
vt 0.1236 0.0274
vt 0.1298 0.0529
vt 0.1211 0.1517
vt 0.1038 0.1738
vt 0.0919 0.1928
vt 0.1597 0.0152
vt 0.1634 0.0359
vt 0.1694 0.0725
vt 0.1567 0.1503
vt 0.1451 0.1787
vt 0.1363 0.1994
vt 0.1875 0.0429
vt 0.1844 0.0200
vt 0.1798 0.0663
vt 0.1715 0.1759
vt 0.1783 0.1469
vt 0.1636 0.1999
vt 0.0280 0.0694
vt 0.0768 0.0371
vt 0.0383 0.0947
vt 0.0344 0.1108
vt 0.0471 0.1412
vt 0.0769 0.1623
vt 0.2933 0.2160
vt 0.2042 0.1713
vt 0.4184 0.1928
vt 0.3518 0.2009
vt 0.4928 0.1164
vt 0.5011 0.1635
vt 0.4905 0.0947
vt 0.4901 0.0684
vt 0.4885 0.0348
vt 0.3363 0.0564
vt 0.4168 0.0310
vt 0.2140 0.0544
vt 0.2838 0.0528
vt 0.0932 0.0330
vt 0.3382 0.0857
vt 0.4139 0.0743
vt 0.2101 0.0882
vt 0.2994 0.0817
vt 0.0925 0.0639
vt 0.3410 0.1070
vt 0.4136 0.0981
vt 0.2049 0.1131
vt 0.2963 0.1077
vt 0.0927 0.0872
vt 0.3446 0.1466
vt 0.4149 0.1385
vt 0.2085 0.1320
vt 0.2923 0.1577
vt 0.0852 0.1289
vt 0.0898 0.1106
vt 0.1236 0.0274
vt 0.1298 0.0529
vt 0.1038 0.1738
vt 0.1211 0.1517
vt 0.1634 0.0359
vt 0.1694 0.0725
vt 0.1451 0.1787
vt 0.1567 0.1503
vt 0.1875 0.0429
vt 0.1798 0.0663
vt 0.1715 0.1759
vt 0.1783 0.1469
vn 0.9298 -0.3040 0.2073
vn 0.9627 0.1299 0.2373
vn 0.9949 -0.0969 0.0282
vn 0.9939 -0.0934 0.0580
vn 0.9922 -0.0992 0.0756
vn 0.9918 -0.0987 0.0812
vn 0.9968 -0.0041 -0.0798
vn 0.9069 -0.3840 -0.1732
vn 0.9577 0.2233 -0.1816
vn 0.9298 0.3040 -0.2073
vn 0.9940 0.0206 0.1071
vn 0.9627 -0.1299 -0.2373
vn 0.9949 0.0969 -0.0282
vn 0.9939 0.0934 -0.0580
vn 0.9922 0.0992 -0.0756
vn 0.9918 0.0987 -0.0812
vn 0.9968 0.0041 0.0798
vn 0.9069 0.3840 0.1732
vn 0.9577 -0.2233 0.1816
vn 0.9940 -0.0206 -0.1071
vn 0.5043 -0.8147 0.2863
vn 0.5740 -0.6684 0.4730
vn 0.6042 -0.5249 0.5995
vn 0.5417 -0.1106 0.8332
vn 0.5599 -0.1622 0.8125
vn 0.3816 0.6983 0.6057
vn 0.4238 0.5880 0.6889
vn 0.1583 0.9684 0.1925
vn 0.3330 0.7680 0.5471
vn 0.1637 0.9327 0.3212
vn 0.1997 0.9072 0.3702
vn 0.2586 0.4904 0.8323
vn 0.2668 0.4197 0.8676
vn 0.3945 0.8364 0.3805
vn 0.3887 0.7717 0.5034
vn 0.3904 0.9183 -0.0660
vn 0.3941 0.9140 -0.0967
vn 0.3862 0.8509 -0.3562
vn 0.3867 0.8524 -0.3519
vn 0.3051 0.3563 -0.8832
vn 0.2834 0.3539 -0.8913
vn 0.2863 0.3543 -0.8902
vn 0.2752 0.1932 -0.9418
vn 0.2789 0.1032 -0.9547
vn 0.2895 -0.3124 -0.9048
vn 0.2990 -0.3871 -0.8722
vn 0.3163 -0.6619 -0.6796
vn 0.1215 -0.9916 -0.0436
vn 0.1903 -0.9814 0.0270
vn 0.2290 -0.9712 0.0653
vn 0.3286 -0.9358 0.1275
vn 0.3295 -0.9323 0.1490
vn 0.2486 -0.9686 -0.0002
vn 0.1949 -0.9788 -0.0627
vn 0.1878 -0.9245 0.3317
vn 0.1190 -0.9620 0.2455
vn 0.4556 -0.6075 0.6507
vn 0.4924 -0.8698 -0.0312
vn 0.4956 -0.8454 -0.1994
vn 0.5631 -0.7995 -0.2091
vn 0.6018 -0.7986 -0.0040
vn 0.5415 -0.8404 -0.0220
vn 0.4289 -0.8871 0.1706
vn 0.6318 -0.7193 0.2888
vn 0.6732 -0.7130 0.1957
vn 0.4294 -0.7733 0.4665
vn 0.5982 -0.7292 0.3323
vn 0.7098 -0.6179 0.3382
vn 0.7472 -0.5602 0.3577
vn 0.8899 -0.3386 -0.3057
vn 0.9517 -0.3051 0.0351
vn 0.8712 -0.2259 0.4358
vn 0.8227 -0.1989 0.5326
vn 0.9399 -0.1939 0.2812
vn 0.9256 -0.2444 0.2890
vn 0.8807 0.2442 -0.4060
vn 0.9878 0.1560 0.0000
vn 0.8612 0.1126 0.4956
vn 0.7731 0.0816 0.6291
vn 0.7972 0.5504 0.2480
vn 0.8761 0.4084 0.2563
vn 0.7977 0.4227 -0.4301
vn 0.9381 0.3458 -0.0182
vn 0.8363 0.1989 0.5109
vn 0.7423 0.1843 0.6442
vn 0.6764 0.6936 0.2480
vn 0.4745 0.8124 0.3387
vn 0.0610 -0.9915 -0.1145
vn 0.4757 -0.8430 -0.2512
vn 0.5302 -0.7972 -0.2889
vn 0.7880 -0.4054 -0.4634
vn 0.7450 0.2579 -0.6151
vn 0.6178 0.4269 -0.6603
vn 0.3144 0.6690 -0.6735
vn -0.0132 -0.9977 -0.0666
vn -0.0181 -0.9950 -0.0986
vn 0.6729 -0.7388 0.0377
vn 0.6747 -0.7368 0.0430
vn 0.7841 0.6205 -0.0129
vn 0.7916 0.6105 0.0257
vn -0.0162 0.9951 -0.0971
vn -0.0121 0.9976 -0.0676
vn -0.0104 -0.9969 -0.0786
vn -0.0011 -0.9996 -0.0285
vn 0.6072 -0.7944 -0.0159
vn 0.6070 -0.7946 -0.0149
vn 0.7840 0.6190 -0.0477
vn 0.7778 0.6250 -0.0667
vn -0.0014 0.9995 -0.0311
vn -0.0090 0.9970 -0.0769
vn -0.0422 -0.9846 -0.1699
vn -0.0251 -0.9952 -0.0947
vn 0.6451 -0.7529 -0.1304
vn 0.6518 -0.7386 -0.1718
vn 0.8353 0.5381 -0.1131
vn 0.8352 0.5315 -0.1412
vn -0.0234 0.9949 -0.0979
vn -0.0377 0.9852 -0.1671
vn -0.5043 -0.8147 0.2863
vn -0.6042 -0.5249 0.5995
vn -0.5740 -0.6684 0.4730
vn -0.5599 -0.1622 0.8125
vn -0.5417 -0.1106 0.8332
vn -0.4238 0.5880 0.6889
vn -0.3816 0.6983 0.6057
vn -0.1583 0.9684 0.1925
vn -0.3330 0.7680 0.5471
vn -0.1997 0.9072 0.3702
vn -0.1637 0.9327 0.3212
vn -0.2586 0.4904 0.8323
vn -0.3887 0.7717 0.5034
vn -0.3945 0.8364 0.3805
vn -0.2668 0.4197 0.8676
vn -0.3904 0.9183 -0.0660
vn -0.3867 0.8524 -0.3519
vn -0.3862 0.8509 -0.3562
vn -0.3941 0.9140 -0.0967
vn -0.3051 0.3563 -0.8832
vn -0.2863 0.3543 -0.8902
vn -0.2834 0.3539 -0.8913
vn -0.2789 0.1032 -0.9547
vn -0.2752 0.1932 -0.9418
vn -0.2990 -0.3871 -0.8722
vn -0.2895 -0.3124 -0.9048
vn -0.3163 -0.6619 -0.6796
vn -0.1215 -0.9916 -0.0436
vn -0.2290 -0.9712 0.0653
vn -0.1903 -0.9814 0.0270
vn -0.3286 -0.9358 0.1275
vn -0.1949 -0.9788 -0.0627
vn -0.2486 -0.9686 -0.0002
vn -0.3295 -0.9323 0.1490
vn -0.1878 -0.9245 0.3317
vn -0.4556 -0.6075 0.6507
vn -0.1190 -0.9620 0.2455
vn -0.4924 -0.8698 -0.0312
vn -0.6018 -0.7986 -0.0040
vn -0.5631 -0.7995 -0.2091
vn -0.4956 -0.8454 -0.1994
vn -0.5415 -0.8404 -0.0220
vn -0.6732 -0.7130 0.1957
vn -0.6318 -0.7193 0.2888
vn -0.4289 -0.8871 0.1706
vn -0.4294 -0.7733 0.4665
vn -0.7472 -0.5602 0.3577
vn -0.7098 -0.6179 0.3382
vn -0.5982 -0.7292 0.3323
vn -0.9517 -0.3051 0.0351
vn -0.8899 -0.3386 -0.3057
vn -0.8227 -0.1989 0.5326
vn -0.8712 -0.2259 0.4358
vn -0.9256 -0.2444 0.2890
vn -0.9397 -0.1938 0.2818
vn -0.9878 0.1560 0.0000
vn -0.8807 0.2442 -0.4060
vn -0.7731 0.0816 0.6291
vn -0.8612 0.1126 0.4956
vn -0.8761 0.4084 0.2562
vn -0.7972 0.5504 0.2480
vn -0.9381 0.3458 -0.0182
vn -0.7977 0.4227 -0.4301
vn -0.7423 0.1843 0.6442
vn -0.8363 0.1989 0.5109
vn -0.4745 0.8124 0.3387
vn -0.6764 0.6936 0.2480
vn -0.0610 -0.9915 -0.1145
vn -0.5302 -0.7972 -0.2889
vn -0.4757 -0.8430 -0.2512
vn -0.7880 -0.4054 -0.4634
vn -0.7450 0.2579 -0.6151
vn -0.6178 0.4269 -0.6603
vn -0.3144 0.6690 -0.6735
vn 0.0132 -0.9977 -0.0666
vn 0.0181 -0.9950 -0.0986
vn -0.6747 -0.7368 0.0430
vn -0.6729 -0.7388 0.0377
vn -0.7916 0.6105 0.0257
vn -0.7841 0.6205 -0.0129
vn 0.0121 0.9976 -0.0676
vn 0.0162 0.9951 -0.0971
vn 0.0104 -0.9969 -0.0786
vn 0.0011 -0.9996 -0.0285
vn -0.6070 -0.7946 -0.0149
vn -0.6072 -0.7944 -0.0159
vn -0.7778 0.6250 -0.0667
vn -0.7840 0.6190 -0.0477
vn 0.0090 0.9970 -0.0769
vn 0.0014 0.9995 -0.0311
vn 0.0251 -0.9952 -0.0947
vn 0.0422 -0.9846 -0.1699
vn -0.6451 -0.7529 -0.1304
vn -0.6518 -0.7386 -0.1718
vn -0.8353 0.5381 -0.1131
vn -0.8353 0.5314 -0.1412
vn 0.0234 0.9949 -0.0979
vn 0.0377 0.9852 -0.1671
vn 0.9990 0.0448 -0.0013
vn 0.9990 0.0435 0.0086
vn 0.9910 0.1337 -0.0113
vn 0.9987 0.0266 -0.0446
vn 0.9685 0.0499 -0.2441
vn 0.9985 0.0548 -0.0042
vn 0.9990 0.0444 -0.0027
vn 0.9985 0.0509 -0.0210
vn 0.9982 0.0524 -0.0296
vn 0.9918 0.1261 -0.0205
vn 0.9974 0.0478 -0.0533
vn 0.9977 0.0663 -0.0137
vn -0.9918 0.1261 -0.0211
vn -0.9982 0.0524 -0.0296
vn -0.9985 0.0509 -0.0210
vn -0.9990 0.0444 -0.0027
vn -0.9985 0.0549 -0.0042
vn -0.9685 0.0499 -0.2441
vn -0.9987 0.0266 -0.0446
vn -0.9910 0.1337 -0.0113
vn -0.9990 0.0435 0.0087
vn -0.9990 0.0448 -0.0013
vn -0.9977 0.0663 -0.0137
vn -0.9974 0.0478 -0.0533
usemtl initialShadingGroup1
s off
f 101/1/1 106/2/1 120/3/1
f 118/4/2 96/5/2 101/1/2
f 118/4/3 101/1/3 120/3/3
f 118/4/4 120/3/4 116/6/4
f 114/7/5 118/4/5 116/6/5
f 114/7/6 116/6/6 112/8/6
f 110/9/7 114/7/7 112/8/7
f 108/10/8 103/11/8 112/8/8
f 98/12/9 110/9/9 103/11/9
f 49/13/10 54/14/10 72/15/10
f 103/11/11 110/9/11 112/8/11
f 70/16/12 44/17/12 49/13/12
f 70/16/13 49/13/13 72/15/13
f 70/16/14 72/15/14 65/18/14
f 64/19/15 70/16/15 65/18/15
f 64/19/16 65/18/16 59/20/16
f 58/21/17 64/19/17 59/20/17
f 55/22/18 50/23/18 59/20/18
f 45/24/19 58/21/19 50/23/19
f 50/23/20 58/21/20 59/20/20
s 1
f 1/25/21 2/26/21 3/27/22 4/28/23
f 4/28/23 3/27/22 5/29/24 6/30/25
f 6/30/25 5/29/24 7/31/26 8/32/27
f 8/32/27 7/31/26 9/33/28 10/34/28
f 10/34/29 9/33/29 11/35/30 12/36/31
f 13/37/32 14/38/33 15/39/34 16/40/35
f 17/41/36 18/42/37 19/43/38 20/44/39
f 21/45/40 22/46/40 23/47/41 24/48/42
f 24/49/42 23/47/41 25/50/43 26/51/44
f 26/51/44 25/50/43 27/52/45 28/53/46
f 28/53/46 27/52/45 29/54/47 30/55/47
f 31/56/48 32/57/48 33/58/49 34/59/50
f 35/60/51 36/61/52 37/62/53 38/63/54
f 39/64/55 40/65/56 2/26/57 1/25/57
f 33/58/58 32/57/59 41/66/60 42/67/61
f 37/62/62 36/61/63 43/68/64 44/69/65
f 2/26/66 40/65/67 45/70/68 3/27/69
f 42/67/61 41/66/60 46/71/70 47/72/71
f 44/69/65 43/68/64 48/73/72 49/74/73
f 3/27/69 45/70/68 50/75/74 5/29/75
f 47/72/71 46/71/70 51/76/76 52/77/77
f 49/74/73 48/73/72 53/78/78 54/79/79
f 5/29/75 50/80/74 55/81/80 7/31/81
f 52/77/77 51/76/76 19/43/82 18/42/83
f 54/79/79 53/78/78 15/39/84 14/38/85
f 7/31/81 55/81/80 11/35/86 9/33/87
f 30/55/88 29/54/88 32/57/48 31/56/48
f 41/66/60 32/57/59 29/54/89 27/52/90
f 46/71/70 41/66/60 27/52/90 25/50/91
f 51/76/76 46/71/70 25/50/91 23/47/92
f 19/43/82 51/76/76 23/47/92 22/46/93
f 20/44/39 19/43/38 22/46/94 21/45/94
f 34/59/50 33/58/49 36/61/52 35/60/51
f 43/68/64 36/61/63 33/58/58 42/67/61
f 48/73/72 43/68/64 42/67/61 47/72/71
f 53/78/78 48/73/72 47/72/71 52/77/77
f 15/39/84 53/78/78 52/77/77 18/42/83
f 16/40/35 15/39/34 18/42/37 17/41/36
f 56/82/95 57/83/96 40/65/56 39/64/55
f 45/70/68 40/65/67 57/83/97 58/84/98
f 11/35/86 55/81/80 59/85/99 60/86/100
f 12/36/31 11/35/30 60/86/101 61/87/102
f 62/88/103 63/89/104 57/83/96 56/82/95
f 58/84/98 57/83/97 63/89/105 64/90/106
f 60/86/100 59/85/99 65/91/107 66/92/108
f 61/87/102 60/86/101 66/92/109 67/93/110
f 38/63/54 37/62/53 68/94/111 69/95/112
f 70/96/113 68/94/114 37/62/62 44/69/65
f 71/97/115 72/98/116 54/79/79 14/38/85
f 73/99/117 71/97/118 14/38/33 13/37/32
f 69/95/112 68/94/111 63/89/104 62/88/103
f 64/90/106 63/89/105 68/94/114 70/96/113
f 66/92/108 65/91/107 72/98/116 71/97/115
f 67/93/110 66/92/109 71/97/118 73/99/117
f 1/25/119 4/28/120 74/100/121 75/101/119
f 4/28/120 6/30/122 76/102/123 74/100/121
f 6/30/122 8/32/124 77/103/125 76/102/123
f 8/32/124 10/34/126 78/104/126 77/103/125
f 10/34/127 12/36/128 79/105/129 78/104/127
f 13/37/130 16/40/131 80/106/132 81/107/133
f 17/41/134 20/44/135 82/108/136 83/109/137
f 21/45/138 24/48/139 84/110/140 85/111/138
f 24/49/139 26/51/141 86/112/142 84/110/140
f 26/51/141 28/53/143 87/113/144 86/112/142
f 28/53/143 30/55/145 88/114/145 87/113/144
f 31/56/146 34/59/147 89/115/148 90/116/146
f 35/60/149 38/63/150 91/117/151 92/118/152
f 39/64/153 1/25/154 75/101/154 93/119/155
f 89/115/156 94/120/157 95/121/158 90/116/159
f 91/117/160 96/122/161 97/123/162 92/118/163
f 75/101/164 74/100/165 98/124/166 93/119/167
f 94/120/157 99/125/168 100/126/169 95/121/158
f 96/122/161 101/127/170 102/128/171 97/123/162
f 74/100/165 76/102/172 103/129/173 98/124/166
f 99/125/168 104/130/174 105/131/175 100/126/169
f 101/127/170 106/132/176 107/133/177 102/128/171
f 76/102/172 77/103/178 108/134/179 103/135/173
f 104/130/174 83/109/180 82/108/181 105/131/175
f 106/132/176 81/107/182 80/106/183 107/133/177
f 77/103/178 78/104/184 79/105/185 108/134/179
f 30/55/186 31/56/146 90/116/146 88/114/186
f 95/121/158 87/113/187 88/114/188 90/116/159
f 100/126/169 86/112/189 87/113/187 95/121/158
f 105/131/175 84/110/190 86/112/189 100/126/169
f 82/108/181 85/111/191 84/110/190 105/131/175
f 20/44/135 21/45/192 85/111/192 82/108/136
f 34/59/147 35/60/149 92/118/152 89/115/148
f 97/123/162 94/120/157 89/115/156 92/118/163
f 102/128/171 99/125/168 94/120/157 97/123/162
f 107/133/177 104/130/174 99/125/168 102/128/171
f 80/106/183 83/109/180 104/130/174 107/133/177
f 16/40/131 17/41/134 83/109/137 80/106/132
f 56/82/193 39/64/153 93/119/155 109/136/194
f 98/124/166 110/137/195 109/136/196 93/119/167
f 79/105/185 111/138/197 112/139/198 108/134/179
f 12/36/128 61/87/199 111/138/200 79/105/129
f 62/88/201 56/82/193 109/136/194 113/140/202
f 110/137/195 114/141/203 113/140/204 109/136/196
f 111/138/197 115/142/205 116/143/206 112/139/198
f 61/87/199 67/93/207 115/142/208 111/138/200
f 38/63/150 69/95/209 117/144/210 91/117/151
f 118/145/211 96/122/161 91/117/160 117/144/212
f 119/146/213 81/107/182 106/132/176 120/147/214
f 73/99/215 13/37/130 81/107/133 119/146/216
f 69/95/209 62/88/201 113/140/202 117/144/210
f 114/141/203 118/145/211 117/144/212 113/140/204
f 115/142/205 119/146/213 120/147/214 116/143/206
f 67/93/207 73/99/215 119/146/216 115/142/208
f 64/90/217 70/96/218 44/69/219 49/74/220 54/79/221 72/98/222 65/91/223 59/85/224 55/81/225 50/80/226 45/70/227 58/84/228
f 103/135/229 108/134/230 112/139/231 116/143/232 120/147/233 106/132/234 101/127/235 96/122/236 118/145/237 114/141/238 110/137/239 98/124/240
