# Blender v2.78 (sub 0) OBJ File: 'spider_modified.blend'
# www.blender.org
mtllib black_widow_right_front_leg.mtl
o SpiderHalf2.005_SpiderHalf2.007
v -1.252106 0.567469 0.010000
v -1.272106 0.497468 -0.446662
v -0.772006 0.530761 -0.585253
v -0.705083 0.654380 -0.080412
v -1.152106 0.957469 -0.470000
v -0.778290 1.496897 -0.712842
v -0.830083 1.125377 -0.160408
v -0.691367 1.438658 -0.128622
v -2.314431 4.539819 2.669116
v -2.387126 4.625394 2.842179
v -2.834431 4.649819 2.349115
v -3.024431 4.419820 2.299115
v -2.744431 5.039819 2.359115
v -2.774431 5.049819 2.139115
v -2.304431 5.089819 2.569115
v -2.094431 5.149819 2.489115
v -4.139356 3.399819 6.052650
v -5.239842 0.029818 8.156998
v -4.489357 3.329819 6.042650
v -4.539356 3.649819 6.212650
v -4.199356 3.719819 6.212650
vt 0.1081 0.0626
vt 0.1217 0.0614
vt 0.1298 0.0529
vt 0.0925 0.0639
vt 0.0348 0.7927
vt 0.0020 0.7935
vt 0.0122 0.8217
vt 0.0427 0.8536
vt 0.1165 0.1352
vt 0.0979 0.1321
vt 0.0852 0.1289
vt 0.1211 0.1517
vt 0.5026 0.8210
vt 0.4587 0.8103
vt 0.4714 0.8265
vt 0.5034 0.8254
vt 0.7553 0.5177
vt 0.7596 0.5042
vt 0.6998 0.5198
vt 0.7076 0.5361
vt 0.6711 0.5235
vt 0.6688 0.5363
vt 0.6378 0.5099
vt 0.6268 0.5150
vt 0.6062 0.5076
vt 0.6125 0.5176
vt 0.7508 0.2499
vt 0.9315 0.0770
vt 0.7380 0.2286
vt 0.8470 0.0020
vt 0.7139 0.2263
vt 0.5523 0.0059
vt 0.6962 0.2422
vt 0.6722 0.2434
vt 0.7430 0.5032
vt 0.6205 0.4788
vt 0.5219 0.8477
vt 0.5839 0.5301
vt 0.8220 0.8359
vt 0.8042 0.8594
vt 0.7750 0.8471
vn 0.2340 -0.9055 0.3539
vn 0.1900 -0.9276 0.3217
vn -0.3985 -0.1449 -0.9057
vn -0.5919 -0.3137 -0.7425
vn -0.5919 -0.3137 -0.7424
vn -0.7063 0.6555 0.2675
vn 0.6343 0.2996 -0.7127
vn -0.7063 0.6555 0.2674
vn -0.6672 -0.0953 0.7387
vn 0.0196 0.3080 0.9512
vn -0.6672 -0.0954 0.7387
vn -0.4796 0.2110 0.8518
vn -0.3500 0.5503 0.7581
vn -0.3501 0.5503 0.7581
vn -0.4795 0.2110 0.8518
vn -0.6706 0.4212 0.6107
vn -0.9654 0.2191 0.1416
vn -0.9654 0.2192 0.1416
vn -0.2186 0.9643 0.1493
vn -0.1430 0.9876 0.0644
vn -0.2187 0.9643 0.1493
vn 0.3097 0.1646 0.9365
vn -0.9482 0.0735 0.3092
vn -0.9481 0.0735 0.3093
vn 0.1404 -0.5885 -0.7962
vn -0.9802 -0.1873 0.0643
vn -0.1097 0.5328 0.8391
vn 0.9856 0.1638 0.0421
vn 0.9856 0.1637 0.0421
vn -0.9742 0.2252 -0.0165
vn -0.9902 -0.1074 -0.0891
vn 0.1995 -0.9430 -0.2663
vn 0.1963 -0.9435 -0.2670
vn 0.9911 -0.1077 0.0786
vn 0.9844 0.1205 0.1280
vn 0.9844 0.1206 0.1280
vn 0.9911 -0.1077 0.0785
vn -0.2310 0.9373 0.2609
vn -0.1942 0.9431 0.2698
vn 0.4167 0.5138 -0.7499
vn 0.3385 0.4963 -0.7994
vn 0.4168 0.5137 -0.7499
vn 0.7209 -0.1034 0.6852
vn 0.7485 -0.0756 0.6588
vn 0.7210 -0.1035 0.6852
vn -0.8219 -0.5010 0.2711
vn -0.3377 -0.4865 0.8058
vn -0.3377 -0.4864 0.8058
vn -0.8201 -0.1364 -0.5557
vn -0.6525 0.0672 -0.7548
usemtl initialShadingGroup1
s off
f 1/1/1 2/2/2 3/3/2 4/4/1
f 3/5/3 2/6/4 5/7/5 6/8/3
f 5/9/6 7/10/7 8/11/7 6/12/8
f 7/13/9 1/14/10 4/15/10 8/16/11
f 9/17/12 10/18/13 11/19/14 12/20/15
f 11/19/16 13/21/17 14/22/18 12/20/16
f 14/22/19 13/21/20 15/23/20 16/24/21
f 15/23/22 10/25/23 9/26/24 16/24/22
f 17/27/25 18/28/25 19/29/25
f 19/29/26 18/30/26 20/31/26
f 20/31/27 18/32/27 21/33/27
f 21/33/28 18/32/28 17/34/29
f 11/19/30 19/29/31 20/31/31 13/21/30
f 10/35/32 17/27/33 19/29/33 11/19/32
f 21/33/34 17/34/35 10/36/36 15/23/37
f 20/31/38 21/33/39 15/23/39 13/21/38
f 14/22/40 16/24/41 7/13/41 5/37/42
f 7/13/43 16/24/44 9/38/44 1/14/45
f 1/39/46 9/17/47 12/20/48 2/40/46
f 12/20/49 14/22/50 5/41/50 2/40/49
