# Blender v2.78 (sub 0) OBJ File: 'spider_modified.blend'
# www.blender.org
mtllib black_widow_right_hind_leg.mtl
o SpiderHalf2
v -0.799095 0.547299 -1.640151
v -0.710378 1.429164 -1.740213
v -0.712106 0.967469 -1.740000
v -0.932106 0.507469 -1.830000
v -1.002106 0.597469 -2.150000
v -0.679268 0.740451 -2.232038
v -0.734268 1.055377 -2.181264
v -0.645551 1.260559 -2.278264
v -4.222106 4.917469 -3.149999
v -4.292106 4.887469 -3.329999
v -4.292106 4.337469 -3.349999
v -4.332106 4.157469 -3.289999
v -3.922106 4.347469 -3.699999
v -3.902106 4.217469 -3.839999
v -3.912106 4.897469 -3.690000
v -3.782106 4.977469 -3.699999
v -6.968522 4.007470 -5.226564
v -8.475843 0.007470 -7.169023
v -6.928521 3.827470 -5.216565
v -6.408521 3.837469 -5.346565
v -6.438522 4.067470 -5.396565
vt 0.1693 0.1032
vt 0.1718 0.1191
vt 0.1708 0.1230
vt 0.1783 0.1469
vt 0.1840 0.0760
vt 0.1949 0.0861
vt 0.2101 0.0882
vt 0.1798 0.0663
vt 0.0826 0.7999
vt 0.0618 0.7904
vt 0.0779 0.8198
vt 0.0862 0.8327
vt 0.2085 0.1320
vt 0.2049 0.1131
vt 0.9702 0.3711
vt 0.9713 0.3756
vt 0.9764 0.3815
vt 0.9763 0.3759
vt 0.9817 0.4030
vt 0.9891 0.4275
vt 0.9759 0.3895
vt 0.9741 0.3875
vt 0.9731 0.3830
vt 0.9746 0.3808
vt 0.9747 0.3810
vt 0.9747 0.3810
vt 0.9747 0.3812
vt 0.9729 0.3818
vt 0.9747 0.3859
vt 0.8630 0.1527
vt 0.8961 0.1375
vt 0.9372 0.1303
vt 0.9642 0.1328
vt 0.8297 0.1785
vn -0.9748 0.1245 -0.1853
vn -0.8510 0.3265 0.4114
vn -0.2034 -0.9777 -0.0525
vn -0.3515 -0.9184 -0.1814
vn -0.3515 -0.9184 -0.1815
vn -0.5072 0.0077 -0.8618
vn -0.0140 0.1152 -0.9932
vn -0.9872 0.1020 -0.1228
vn -0.3609 0.8917 0.2731
vn -0.3609 0.8918 0.2730
vn -0.9872 0.1020 -0.1227
vn -0.9749 0.1680 -0.1460
vn -0.9312 -0.0132 0.3643
vn -0.7274 0.4479 -0.5198
vn -0.6831 -0.0898 -0.7247
vn -0.9240 0.2054 -0.3226
vn -0.0888 0.0197 -0.9959
vn -0.0887 0.0197 -0.9959
vn -0.9240 0.2053 -0.3227
vn -0.5137 0.7943 -0.3243
vn -0.1326 0.9848 -0.1126
vn -0.9672 -0.2218 -0.1240
vn 0.2233 -0.4632 0.8577
vn 0.9888 0.1402 0.0516
vn -0.3204 0.4070 -0.8554
vn -0.3204 0.4069 -0.8554
vn -0.1715 0.9731 -0.1540
vn -0.1611 0.9742 -0.1583
vn -0.1610 0.9742 -0.1583
vn 0.9719 -0.0134 -0.2349
vn 0.9680 0.0741 -0.2400
vn 0.1115 -0.9897 0.0896
vn 0.0477 -0.9923 0.1142
vn 0.0476 -0.9923 0.1142
vn -0.9652 -0.0095 0.2613
vn -0.9431 -0.1946 0.2697
vn -0.9431 -0.1946 0.2696
vn 0.7338 0.6760 0.0671
vn 0.5613 0.6444 0.5193
vn 0.5613 0.6444 0.5194
vn -0.3892 0.0059 0.9211
vn -0.4618 -0.0956 0.8818
vn -0.7242 -0.6887 -0.0353
vn -0.5465 -0.6715 -0.5005
vn 0.3966 -0.1079 -0.9116
vn 0.5366 0.0702 -0.8409
usemtl initialShadingGroup1
s off
f 3/1/1 4/2/2 1/3/2 2/4/1
f 4/5/3 5/6/4 6/7/5 1/8/3
f 6/9/6 5/10/7 7/11/7 8/12/6
f 8/13/8 7/14/9 3/1/10 2/4/11
f 9/15/12 10/16/13 11/17/13 12/18/12
f 12/18/14 11/17/15 13/19/15 14/20/14
f 13/19/16 15/21/17 16/22/18 14/20/19
f 15/23/20 10/16/21 9/15/21 16/22/20
f 17/24/22 18/25/22 19/26/22
f 19/26/23 18/25/23 20/27/23
f 20/27/24 18/25/24 21/28/24
f 21/28/25 18/25/26 17/24/25
f 15/23/27 21/28/28 17/24/29 10/16/27
f 13/29/30 20/27/31 21/28/31 15/23/30
f 19/26/32 20/27/33 13/29/34 11/17/32
f 17/24/35 19/26/36 11/17/37 10/16/35
f 7/30/38 16/22/39 9/15/40 3/31/38
f 3/31/41 9/15/42 12/18/42 4/32/41
f 12/18/43 14/20/44 5/33/44 4/32/43
f 14/20/45 16/22/46 7/30/46 5/34/45
