# Blender v2.78 (sub 0) OBJ File: 'spider_modified.blend'
# www.blender.org
mtllib black_widow_right_hind_leg_2.mtl
o SpiderHalf2.007_SpiderHalf2.009
v -0.962106 1.137469 -1.350000
v -0.982106 1.117469 -1.630000
v -4.332106 3.572547 -1.260000
v -4.482106 3.542547 -1.929999
v -0.962106 1.137469 -1.350000
v -1.122106 0.497469 -1.330000
v -0.825997 0.566698 -1.261379
v -0.732280 1.448424 -1.333872
v -1.112106 0.487469 -1.600000
v -0.799095 0.547299 -1.640151
v -0.982106 1.117469 -1.630000
v -0.710378 1.429164 -1.740213
v -4.422105 3.432547 -1.329999
v -4.522106 2.822547 -1.360000
v -4.492106 2.692548 -1.289999
v -4.332106 3.572547 -1.260000
v -4.622106 2.772547 -1.850000
v -4.632106 2.632547 -1.960000
v -4.542106 3.412548 -1.819999
v -4.482106 3.542547 -1.929999
v -7.842106 2.352547 -1.020000
v -10.292107 0.002548 -0.860000
v -7.772106 1.992547 -1.000000
v -7.842106 1.962548 -1.390000
v -7.912106 2.312548 -1.420000
vt 0.1686 0.6555
vt 0.4239 0.5969
vt 0.3954 0.5618
vt 0.1625 0.6381
vt 0.1712 0.0865
vt 0.1756 0.0773
vt 0.1694 0.0725
vt 0.1711 0.0874
vt 0.1764 0.0782
vt 0.1798 0.0663
vt 0.1708 0.1230
vt 0.1698 0.1171
vt 0.1698 0.1275
vt 0.1783 0.1469
vt 0.1641 0.1313
vt 0.1567 0.1503
vt 0.3944 0.5588
vt 0.3847 0.5152
vt 0.3778 0.5089
vt 0.3954 0.5618
vt 0.4200 0.5358
vt 0.4250 0.5308
vt 0.4206 0.5835
vt 0.4239 0.5969
vt 0.3917 0.5467
vt 0.3936 0.5489
vt 0.3956 0.5221
vt 0.3993 0.5377
vt 0.3951 0.5509
vt 0.1625 0.6381
vt 0.1336 0.6077
vt 0.4509 0.2690
vt 0.4333 0.2702
vt 0.4121 0.6526
vt 0.1686 0.6555
vt 0.1651 0.6952
vn 0.6936 0.7133 -0.1005
vn 0.6805 0.7093 -0.1841
vn -0.6168 0.0891 0.7820
vn -0.3689 0.1210 0.9216
vn -0.3689 0.1210 0.9215
vn -0.1337 -0.9896 -0.0535
vn -0.0722 -0.9968 0.0342
vn -0.0721 -0.9968 0.0342
vn 0.1287 -0.0879 -0.9878
vn 0.1587 -0.0796 -0.9841
vn 0.1288 -0.0879 -0.9878
vn -0.7142 0.6297 -0.3057
vn -0.5668 0.8237 -0.0183
vn -0.7069 0.1047 0.6995
vn -0.8253 0.1080 0.5543
vn -0.9725 -0.0970 0.2119
vn -0.9714 -0.1113 0.2096
vn -0.9787 0.1653 -0.1215
vn -0.9275 0.1323 -0.3495
vn -0.8656 0.4700 0.1727
vn -0.8260 0.5340 0.1805
vn -0.8656 0.4701 0.1727
vn 0.0101 0.0574 0.9983
vn 0.6172 -0.7852 -0.0504
vn -0.1256 -0.1096 -0.9860
vn -0.6898 0.7224 0.0485
vn -0.2981 0.9539 0.0341
vn -0.3143 0.9485 -0.0398
vn -0.3143 0.9485 -0.0399
vn -0.1381 0.0636 -0.9884
vn -0.1141 -0.1075 -0.9876
vn 0.2521 -0.9666 0.0472
vn 0.2479 -0.9683 0.0300
vn 0.1110 -0.0670 0.9916
vn 0.0914 0.0729 0.9931
vn 0.0914 0.0730 0.9931
vn 0.0327 0.0230 0.9992
vn -0.0056 -0.0331 0.9994
vn 0.0327 0.0231 0.9992
vn -0.6710 -0.7414 0.0026
vn -0.6472 -0.7353 0.2011
vn 0.0523 -0.0583 -0.9969
vn 0.1005 0.0162 -0.9948
vn 0.0523 -0.0582 -0.9969
usemtl initialShadingGroup1
s off
f 2/1/1 4/2/2 3/3/2 1/4/1
f 5/5/3 6/6/4 7/7/5 8/8/3
f 6/6/6 9/9/7 10/10/8 7/7/6
f 10/11/9 9/12/10 11/13/10 12/14/11
f 12/14/12 11/13/13 5/15/13 8/16/12
f 13/17/14 14/18/15 15/19/15 16/20/14
f 15/19/16 14/18/17 17/21/17 18/22/16
f 17/21/18 19/23/19 20/24/19 18/22/18
f 20/24/20 19/23/21 13/17/21 16/20/22
f 21/25/23 22/26/23 23/27/23
f 23/27/24 22/26/24 24/28/24
f 24/28/25 22/26/25 25/29/25
f 25/29/26 22/26/26 21/25/26
f 19/23/27 25/29/28 21/25/29 13/17/27
f 17/21/30 24/28/31 25/29/31 19/23/30
f 23/27/32 24/28/33 17/21/33 14/18/32
f 21/25/34 23/27/35 14/18/36 13/17/34
f 5/30/37 16/20/38 15/19/38 6/31/39
f 15/19/40 18/22/41 9/32/41 6/33/40
f 18/34/42 20/24/43 11/35/43 9/36/44
