# Blender v2.78 (sub 0) OBJ File: 'spider_modified.blend'
# www.blender.org
mtllib black_widow_torso_and_head.mtl
o initialShadingGroup_SpiderHalf2
v -0.007659 0.411057 0.309084
v 0.171649 0.411057 -0.006787
v 0.171649 0.732171 0.907068
v -0.007659 0.732171 1.222940
v 0.543708 1.053285 0.907132
v -0.007659 1.053284 1.223003
v 0.543708 1.374398 0.907132
v -0.007659 1.374398 1.223003
v 0.209032 1.513023 0.347252
v -0.007659 1.513023 0.663124
v 0.348067 1.917273 -0.120821
v -0.007659 1.917273 -0.088272
v -0.007659 1.695513 -2.178297
v 0.356436 1.695513 -2.262529
v 1.303322 3.030572 -3.051762
v -0.007659 3.422025 -2.766571
v -0.007659 3.599066 -3.954245
v 1.515304 2.869262 -4.282465
v 1.207418 2.737580 -5.550294
v -0.007659 3.305484 -5.518646
v -0.007659 2.109108 -6.741784
v 0.393132 1.945027 -6.682987
v 0.891167 1.374400 -6.727617
v -0.007659 1.374400 -7.051657
v 0.891167 1.053286 -6.914524
v -0.007659 1.053286 -7.116006
v 0.590475 0.732172 -6.869396
v -0.007659 0.732172 -7.104938
v 0.131016 0.411058 -6.727617
v -0.007659 0.411058 -6.835064
v -0.007659 0.260913 -5.500992
v 0.498433 0.298167 -5.587319
v 1.031958 0.376096 -4.282465
v -0.007659 0.187961 -3.954245
v -0.007659 0.203907 -3.191790
v 0.683506 0.521541 -3.468078
v 0.319054 0.411057 -2.262529
v -0.007659 0.411057 -2.178296
v -0.007659 0.189296 -0.088274
v 0.310685 0.189296 -0.120824
v 1.211358 0.687479 -5.609340
v 1.505572 0.721094 -4.282465
v 1.296343 0.642703 -3.608986
v 0.663951 0.740451 -2.232038
v 0.689766 0.654380 -0.080412
v 1.578615 0.973415 -5.616349
v 1.825406 1.036198 -4.282465
v 1.525695 1.056528 -3.526418
v 0.718951 1.055377 -2.181264
v 0.814766 1.125377 -0.160408
v 1.669957 1.791794 -5.587319
v 1.902658 1.864844 -4.282464
v 1.581092 1.972245 -3.306235
v 0.630234 1.260559 -2.278264
v 0.676049 1.438658 -0.128622
v -0.007659 0.134821 -0.568093
v 0.364531 0.134822 -0.620507
v 0.756689 0.530761 -0.585253
v 0.762972 1.496897 -0.712842
v 0.401913 1.971748 -0.620505
v -0.007659 1.971748 -0.568091
v -0.007659 0.278570 -1.207242
v 0.332512 0.278570 -1.272757
v 0.810680 0.566698 -1.261379
v 0.716963 1.448424 -1.333872
v 0.369895 1.827999 -1.272757
v -0.007659 1.827999 -1.207241
v 0.398708 0.200975 -1.730302
v -0.007659 0.200975 -1.640840
v 0.783778 0.547299 -1.640151
v 0.436090 1.905594 -1.730301
v 0.695061 1.429164 -1.740213
v -0.007659 1.905594 -1.640839
v -0.186967 0.732171 0.907068
v -0.186967 0.411057 -0.006787
v -0.559026 1.053285 0.907132
v -0.559026 1.374398 0.907132
v -0.224349 1.513023 0.347252
v -0.363384 1.917273 -0.120821
v -1.318639 3.030572 -3.051762
v -0.371754 1.695513 -2.262529
v -1.222735 2.737580 -5.550294
v -1.530621 2.869262 -4.282465
v -0.906484 1.374400 -6.727617
v -0.408449 1.945027 -6.682987
v -0.906484 1.053286 -6.914524
v -0.605792 0.732172 -6.869396
v -0.146333 0.411058 -6.727617
v -1.047275 0.376096 -4.282465
v -0.513751 0.298167 -5.587319
v -0.334372 0.411057 -2.262529
v -0.698823 0.521541 -3.468078
v -0.326002 0.189296 -0.120824
v -1.520889 0.721094 -4.282465
v -1.226675 0.687479 -5.609340
v -0.679268 0.740451 -2.232038
v -1.311661 0.642703 -3.608986
v -0.705083 0.654380 -0.080412
v -1.840723 1.036198 -4.282465
v -1.593932 0.973415 -5.616349
v -0.734268 1.055377 -2.181264
v -1.541013 1.056528 -3.526418
v -0.830083 1.125377 -0.160408
v -1.917975 1.864844 -4.282464
v -1.685274 1.791794 -5.587319
v -0.645551 1.260559 -2.278264
v -1.596410 1.972245 -3.306235
v -0.691367 1.438658 -0.128622
v -0.379848 0.134822 -0.620507
v -0.772006 0.530761 -0.585253
v -0.417230 1.971748 -0.620505
v -0.778290 1.496897 -0.712842
v -0.347830 0.278570 -1.272757
v -0.825997 0.566698 -1.261379
v -0.385212 1.827999 -1.272757
v -0.732280 1.448424 -1.333872
v -0.414025 0.200975 -1.730302
v -0.799095 0.547299 -1.640151
v -0.451407 1.905594 -1.730301
v -0.710378 1.429164 -1.740213
vt 0.0549 0.0373
vt 0.0768 0.0371
vt 0.0280 0.0694
vt 0.0064 0.0700
vt 0.0383 0.0947
vt 0.0057 0.0877
vt 0.0344 0.1108
vt 0.0020 0.1066
vt 0.0471 0.1412
vt 0.0225 0.1380
vt 0.0769 0.1623
vt 0.0626 0.1758
vt 0.1930 0.1900
vt 0.2042 0.1713
vt 0.2933 0.2160
vt 0.2649 0.2792
vt 0.3453 0.2930
vt 0.3518 0.2009
vt 0.4184 0.1928
vt 0.4417 0.2635
vt 0.5142 0.1852
vt 0.5011 0.1635
vt 0.4928 0.1164
vt 0.5433 0.1515
vt 0.5408 0.0772
vt 0.4905 0.0947
vt 0.5292 0.0613
vt 0.4901 0.0684
vt 0.5173 0.0459
vt 0.4885 0.0348
vt 0.4974 0.0299
vt 0.4153 0.0020
vt 0.4168 0.0310
vt 0.3363 0.0564
vt 0.3122 0.0032
vt 0.2630 0.0158
vt 0.2838 0.0528
vt 0.2140 0.0544
vt 0.2105 0.0347
vt 0.0821 0.0198
vt 0.0932 0.0330
vt 0.4139 0.0743
vt 0.3382 0.0857
vt 0.2994 0.0817
vt 0.2101 0.0882
vt 0.0925 0.0639
vt 0.4136 0.0981
vt 0.3410 0.1070
vt 0.2963 0.1077
vt 0.2049 0.1131
vt 0.0927 0.0872
vt 0.4149 0.1385
vt 0.3446 0.1466
vt 0.2923 0.1577
vt 0.2085 0.1320
vt 0.0898 0.1106
vt 0.0852 0.1289
vt 0.1155 0.0086
vt 0.1236 0.0274
vt 0.1298 0.0529
vt 0.1211 0.1517
vt 0.1038 0.1738
vt 0.0919 0.1928
vt 0.1597 0.0152
vt 0.1634 0.0359
vt 0.1694 0.0725
vt 0.1567 0.1503
vt 0.1451 0.1787
vt 0.1363 0.1994
vt 0.1875 0.0429
vt 0.1844 0.0200
vt 0.1798 0.0663
vt 0.1715 0.1759
vt 0.1783 0.1469
vt 0.1636 0.1999
vt 0.0280 0.0694
vt 0.0768 0.0371
vt 0.0383 0.0947
vt 0.0344 0.1108
vt 0.0471 0.1412
vt 0.0769 0.1623
vt 0.2933 0.2160
vt 0.2042 0.1713
vt 0.4184 0.1928
vt 0.3518 0.2009
vt 0.4928 0.1164
vt 0.5011 0.1635
vt 0.4905 0.0947
vt 0.4901 0.0684
vt 0.4885 0.0348
vt 0.3363 0.0564
vt 0.4168 0.0310
vt 0.2140 0.0544
vt 0.2838 0.0528
vt 0.0932 0.0330
vt 0.3382 0.0857
vt 0.4139 0.0743
vt 0.2101 0.0882
vt 0.2994 0.0817
vt 0.0925 0.0639
vt 0.3410 0.1070
vt 0.4136 0.0981
vt 0.2049 0.1131
vt 0.2963 0.1077
vt 0.0927 0.0872
vt 0.3446 0.1466
vt 0.4149 0.1385
vt 0.2085 0.1320
vt 0.2923 0.1577
vt 0.0852 0.1289
vt 0.0898 0.1106
vt 0.1236 0.0274
vt 0.1298 0.0529
vt 0.1038 0.1738
vt 0.1211 0.1517
vt 0.1634 0.0359
vt 0.1694 0.0725
vt 0.1451 0.1787
vt 0.1567 0.1503
vt 0.1875 0.0429
vt 0.1798 0.0663
vt 0.1715 0.1759
vt 0.1783 0.1469
vn 0.5043 -0.8147 0.2863
vn 0.5740 -0.6684 0.4730
vn 0.6042 -0.5249 0.5995
vn 0.5417 -0.1106 0.8332
vn 0.5599 -0.1622 0.8125
vn 0.3816 0.6983 0.6057
vn 0.4238 0.5880 0.6889
vn 0.1583 0.9684 0.1925
vn 0.3330 0.7680 0.5471
vn 0.1637 0.9327 0.3212
vn 0.1997 0.9072 0.3702
vn 0.2586 0.4904 0.8323
vn 0.2668 0.4197 0.8676
vn 0.3945 0.8364 0.3805
vn 0.3887 0.7717 0.5034
vn 0.3904 0.9183 -0.0660
vn 0.3941 0.9140 -0.0967
vn 0.3862 0.8509 -0.3562
vn 0.3867 0.8524 -0.3519
vn 0.3051 0.3563 -0.8832
vn 0.2834 0.3539 -0.8913
vn 0.2863 0.3543 -0.8902
vn 0.2752 0.1932 -0.9418
vn 0.2789 0.1032 -0.9547
vn 0.2895 -0.3124 -0.9048
vn 0.2990 -0.3871 -0.8722
vn 0.3163 -0.6619 -0.6796
vn 0.1215 -0.9916 -0.0436
vn 0.1903 -0.9814 0.0270
vn 0.2290 -0.9712 0.0653
vn 0.3286 -0.9358 0.1275
vn 0.3295 -0.9323 0.1490
vn 0.2486 -0.9686 -0.0002
vn 0.1949 -0.9788 -0.0627
vn 0.1878 -0.9245 0.3317
vn 0.1190 -0.9620 0.2455
vn 0.4556 -0.6075 0.6507
vn 0.4924 -0.8698 -0.0312
vn 0.4956 -0.8454 -0.1994
vn 0.5631 -0.7995 -0.2091
vn 0.6018 -0.7986 -0.0040
vn 0.5415 -0.8404 -0.0220
vn 0.4289 -0.8871 0.1706
vn 0.6318 -0.7193 0.2888
vn 0.6732 -0.7130 0.1957
vn 0.4294 -0.7733 0.4665
vn 0.5982 -0.7292 0.3323
vn 0.7098 -0.6179 0.3382
vn 0.7472 -0.5602 0.3577
vn 0.8899 -0.3386 -0.3057
vn 0.9517 -0.3051 0.0351
vn 0.8712 -0.2259 0.4358
vn 0.8227 -0.1989 0.5326
vn 0.9399 -0.1939 0.2812
vn 0.9256 -0.2444 0.2890
vn 0.8807 0.2442 -0.4060
vn 0.9878 0.1560 0.0000
vn 0.8612 0.1126 0.4956
vn 0.7731 0.0816 0.6291
vn 0.7972 0.5504 0.2480
vn 0.8761 0.4084 0.2563
vn 0.7977 0.4227 -0.4301
vn 0.9381 0.3458 -0.0182
vn 0.8363 0.1989 0.5109
vn 0.7423 0.1843 0.6442
vn 0.6764 0.6936 0.2480
vn 0.4745 0.8124 0.3387
vn 0.0610 -0.9915 -0.1145
vn 0.4757 -0.8430 -0.2512
vn 0.5302 -0.7972 -0.2889
vn 0.7880 -0.4054 -0.4634
vn 0.7450 0.2579 -0.6151
vn 0.6178 0.4269 -0.6603
vn 0.3144 0.6690 -0.6735
vn -0.0132 -0.9977 -0.0666
vn -0.0181 -0.9950 -0.0986
vn 0.6729 -0.7388 0.0377
vn 0.6747 -0.7368 0.0430
vn 0.7841 0.6205 -0.0129
vn 0.7916 0.6105 0.0257
vn -0.0162 0.9951 -0.0971
vn -0.0121 0.9976 -0.0676
vn -0.0104 -0.9969 -0.0786
vn -0.0011 -0.9996 -0.0285
vn 0.6072 -0.7944 -0.0159
vn 0.6070 -0.7946 -0.0149
vn 0.7840 0.6190 -0.0477
vn 0.7778 0.6250 -0.0667
vn -0.0014 0.9995 -0.0311
vn -0.0090 0.9970 -0.0769
vn -0.0422 -0.9846 -0.1699
vn -0.0251 -0.9952 -0.0947
vn 0.6451 -0.7529 -0.1304
vn 0.6518 -0.7386 -0.1718
vn 0.8353 0.5381 -0.1131
vn 0.8352 0.5315 -0.1412
vn -0.0234 0.9949 -0.0979
vn -0.0377 0.9852 -0.1671
vn -0.5043 -0.8147 0.2863
vn -0.6042 -0.5249 0.5995
vn -0.5740 -0.6684 0.4730
vn -0.5599 -0.1622 0.8125
vn -0.5417 -0.1106 0.8332
vn -0.4238 0.5880 0.6889
vn -0.3816 0.6983 0.6057
vn -0.1583 0.9684 0.1925
vn -0.3330 0.7680 0.5471
vn -0.1997 0.9072 0.3702
vn -0.1637 0.9327 0.3212
vn -0.2586 0.4904 0.8323
vn -0.3887 0.7717 0.5034
vn -0.3945 0.8364 0.3805
vn -0.2668 0.4197 0.8676
vn -0.3904 0.9183 -0.0660
vn -0.3867 0.8524 -0.3519
vn -0.3862 0.8509 -0.3562
vn -0.3941 0.9140 -0.0967
vn -0.3051 0.3563 -0.8832
vn -0.2863 0.3543 -0.8902
vn -0.2834 0.3539 -0.8913
vn -0.2789 0.1032 -0.9547
vn -0.2752 0.1932 -0.9418
vn -0.2990 -0.3871 -0.8722
vn -0.2895 -0.3124 -0.9048
vn -0.3163 -0.6619 -0.6796
vn -0.1215 -0.9916 -0.0436
vn -0.2290 -0.9712 0.0653
vn -0.1903 -0.9814 0.0270
vn -0.3286 -0.9358 0.1275
vn -0.1949 -0.9788 -0.0627
vn -0.2486 -0.9686 -0.0002
vn -0.3295 -0.9323 0.1490
vn -0.1878 -0.9245 0.3317
vn -0.4556 -0.6075 0.6507
vn -0.1190 -0.9620 0.2455
vn -0.4924 -0.8698 -0.0312
vn -0.6018 -0.7986 -0.0040
vn -0.5631 -0.7995 -0.2091
vn -0.4956 -0.8454 -0.1994
vn -0.5415 -0.8404 -0.0220
vn -0.6732 -0.7130 0.1957
vn -0.6318 -0.7193 0.2888
vn -0.4289 -0.8871 0.1706
vn -0.4294 -0.7733 0.4665
vn -0.7472 -0.5602 0.3577
vn -0.7098 -0.6179 0.3382
vn -0.5982 -0.7292 0.3323
vn -0.9517 -0.3051 0.0351
vn -0.8899 -0.3386 -0.3057
vn -0.8227 -0.1989 0.5326
vn -0.8712 -0.2259 0.4358
vn -0.9256 -0.2444 0.2890
vn -0.9397 -0.1938 0.2818
vn -0.9878 0.1560 0.0000
vn -0.8807 0.2442 -0.4060
vn -0.7731 0.0816 0.6291
vn -0.8612 0.1126 0.4956
vn -0.8761 0.4084 0.2562
vn -0.7972 0.5504 0.2480
vn -0.9381 0.3458 -0.0182
vn -0.7977 0.4227 -0.4301
vn -0.7423 0.1843 0.6442
vn -0.8363 0.1989 0.5109
vn -0.4745 0.8124 0.3387
vn -0.6764 0.6936 0.2480
vn -0.0610 -0.9915 -0.1145
vn -0.5302 -0.7972 -0.2889
vn -0.4757 -0.8430 -0.2512
vn -0.7880 -0.4054 -0.4634
vn -0.7450 0.2579 -0.6151
vn -0.6178 0.4269 -0.6603
vn -0.3144 0.6690 -0.6735
vn 0.0132 -0.9977 -0.0666
vn 0.0181 -0.9950 -0.0986
vn -0.6747 -0.7368 0.0430
vn -0.6729 -0.7388 0.0377
vn -0.7916 0.6105 0.0257
vn -0.7841 0.6205 -0.0129
vn 0.0121 0.9976 -0.0676
vn 0.0162 0.9951 -0.0971
vn 0.0104 -0.9969 -0.0786
vn 0.0011 -0.9996 -0.0285
vn -0.6070 -0.7946 -0.0149
vn -0.6072 -0.7944 -0.0159
vn -0.7778 0.6250 -0.0667
vn -0.7840 0.6190 -0.0477
vn 0.0090 0.9970 -0.0769
vn 0.0014 0.9995 -0.0311
vn 0.0251 -0.9952 -0.0947
vn 0.0422 -0.9846 -0.1699
vn -0.6451 -0.7529 -0.1304
vn -0.6518 -0.7386 -0.1718
vn -0.8353 0.5381 -0.1131
vn -0.8353 0.5314 -0.1412
vn 0.0234 0.9949 -0.0979
vn 0.0377 0.9852 -0.1671
vn 0.9990 0.0448 -0.0013
vn 0.9990 0.0435 0.0086
vn 0.9910 0.1337 -0.0113
vn 0.9987 0.0266 -0.0446
vn 0.9685 0.0499 -0.2441
vn 0.9985 0.0548 -0.0042
vn 0.9990 0.0444 -0.0027
vn 0.9985 0.0509 -0.0210
vn 0.9982 0.0524 -0.0296
vn 0.9918 0.1261 -0.0205
vn 0.9974 0.0478 -0.0533
vn 0.9977 0.0663 -0.0137
vn -0.9918 0.1261 -0.0211
vn -0.9982 0.0524 -0.0296
vn -0.9985 0.0509 -0.0210
vn -0.9990 0.0444 -0.0027
vn -0.9985 0.0549 -0.0042
vn -0.9685 0.0499 -0.2441
vn -0.9987 0.0266 -0.0446
vn -0.9910 0.1337 -0.0113
vn -0.9990 0.0435 0.0087
vn -0.9990 0.0448 -0.0013
vn -0.9977 0.0663 -0.0137
vn -0.9974 0.0478 -0.0533
usemtl initialShadingGroup1
s 1
f 1/1/1 2/2/1 3/3/2 4/4/3
f 4/4/3 3/3/2 5/5/4 6/6/5
f 6/6/5 5/5/4 7/7/6 8/8/7
f 8/8/7 7/7/6 9/9/8 10/10/8
f 10/10/9 9/9/9 11/11/10 12/12/11
f 13/13/12 14/14/13 15/15/14 16/16/15
f 17/17/16 18/18/17 19/19/18 20/20/19
f 21/21/20 22/22/20 23/23/21 24/24/22
f 24/25/22 23/23/21 25/26/23 26/27/24
f 26/27/24 25/26/23 27/28/25 28/29/26
f 28/29/26 27/28/25 29/30/27 30/31/27
f 31/32/28 32/33/28 33/34/29 34/35/30
f 35/36/31 36/37/32 37/38/33 38/39/34
f 39/40/35 40/41/36 2/2/37 1/1/37
f 33/34/38 32/33/39 41/42/40 42/43/41
f 37/38/42 36/37/43 43/44/44 44/45/45
f 2/2/46 40/41/47 45/46/48 3/3/49
f 42/43/41 41/42/40 46/47/50 47/48/51
f 44/45/45 43/44/44 48/49/52 49/50/53
f 3/3/49 45/46/48 50/51/54 5/5/55
f 47/48/51 46/47/50 51/52/56 52/53/57
f 49/50/53 48/49/52 53/54/58 54/55/59
f 5/5/55 50/56/54 55/57/60 7/7/61
f 52/53/57 51/52/56 19/19/62 18/18/63
f 54/55/59 53/54/58 15/15/64 14/14/65
f 7/7/61 55/57/60 11/11/66 9/9/67
f 30/31/68 29/30/68 32/33/28 31/32/28
f 41/42/40 32/33/39 29/30/69 27/28/70
f 46/47/50 41/42/40 27/28/70 25/26/71
f 51/52/56 46/47/50 25/26/71 23/23/72
f 19/19/62 51/52/56 23/23/72 22/22/73
f 20/20/19 19/19/18 22/22/74 21/21/74
f 34/35/30 33/34/29 36/37/32 35/36/31
f 43/44/44 36/37/43 33/34/38 42/43/41
f 48/49/52 43/44/44 42/43/41 47/48/51
f 53/54/58 48/49/52 47/48/51 52/53/57
f 15/15/64 53/54/58 52/53/57 18/18/63
f 16/16/15 15/15/14 18/18/17 17/17/16
f 56/58/75 57/59/76 40/41/36 39/40/35
f 45/46/48 40/41/47 57/59/77 58/60/78
f 11/11/66 55/57/60 59/61/79 60/62/80
f 12/12/11 11/11/10 60/62/81 61/63/82
f 62/64/83 63/65/84 57/59/76 56/58/75
f 58/60/78 57/59/77 63/65/85 64/66/86
f 60/62/80 59/61/79 65/67/87 66/68/88
f 61/63/82 60/62/81 66/68/89 67/69/90
f 38/39/34 37/38/33 68/70/91 69/71/92
f 70/72/93 68/70/94 37/38/42 44/45/45
f 71/73/95 72/74/96 54/55/59 14/14/65
f 73/75/97 71/73/98 14/14/13 13/13/12
f 69/71/92 68/70/91 63/65/84 62/64/83
f 64/66/86 63/65/85 68/70/94 70/72/93
f 66/68/88 65/67/87 72/74/96 71/73/95
f 67/69/90 66/68/89 71/73/98 73/75/97
f 1/1/99 4/4/100 74/76/101 75/77/99
f 4/4/100 6/6/102 76/78/103 74/76/101
f 6/6/102 8/8/104 77/79/105 76/78/103
f 8/8/104 10/10/106 78/80/106 77/79/105
f 10/10/107 12/12/108 79/81/109 78/80/107
f 13/13/110 16/16/111 80/82/112 81/83/113
f 17/17/114 20/20/115 82/84/116 83/85/117
f 21/21/118 24/24/119 84/86/120 85/87/118
f 24/25/119 26/27/121 86/88/122 84/86/120
f 26/27/121 28/29/123 87/89/124 86/88/122
f 28/29/123 30/31/125 88/90/125 87/89/124
f 31/32/126 34/35/127 89/91/128 90/92/126
f 35/36/129 38/39/130 91/93/131 92/94/132
f 39/40/133 1/1/134 75/77/134 93/95/135
f 89/91/136 94/96/137 95/97/138 90/92/139
f 91/93/140 96/98/141 97/99/142 92/94/143
f 75/77/144 74/76/145 98/100/146 93/95/147
f 94/96/137 99/101/148 100/102/149 95/97/138
f 96/98/141 101/103/150 102/104/151 97/99/142
f 74/76/145 76/78/152 103/105/153 98/100/146
f 99/101/148 104/106/154 105/107/155 100/102/149
f 101/103/150 106/108/156 107/109/157 102/104/151
f 76/78/152 77/79/158 108/110/159 103/111/153
f 104/106/154 83/85/160 82/84/161 105/107/155
f 106/108/156 81/83/162 80/82/163 107/109/157
f 77/79/158 78/80/164 79/81/165 108/110/159
f 30/31/166 31/32/126 90/92/126 88/90/166
f 95/97/138 87/89/167 88/90/168 90/92/139
f 100/102/149 86/88/169 87/89/167 95/97/138
f 105/107/155 84/86/170 86/88/169 100/102/149
f 82/84/161 85/87/171 84/86/170 105/107/155
f 20/20/115 21/21/172 85/87/172 82/84/116
f 34/35/127 35/36/129 92/94/132 89/91/128
f 97/99/142 94/96/137 89/91/136 92/94/143
f 102/104/151 99/101/148 94/96/137 97/99/142
f 107/109/157 104/106/154 99/101/148 102/104/151
f 80/82/163 83/85/160 104/106/154 107/109/157
f 16/16/111 17/17/114 83/85/117 80/82/112
f 56/58/173 39/40/133 93/95/135 109/112/174
f 98/100/146 110/113/175 109/112/176 93/95/147
f 79/81/165 111/114/177 112/115/178 108/110/159
f 12/12/108 61/63/179 111/114/180 79/81/109
f 62/64/181 56/58/173 109/112/174 113/116/182
f 110/113/175 114/117/183 113/116/184 109/112/176
f 111/114/177 115/118/185 116/119/186 112/115/178
f 61/63/179 67/69/187 115/118/188 111/114/180
f 38/39/130 69/71/189 117/120/190 91/93/131
f 118/121/191 96/98/141 91/93/140 117/120/192
f 119/122/193 81/83/162 106/108/156 120/123/194
f 73/75/195 13/13/110 81/83/113 119/122/196
f 69/71/189 62/64/181 113/116/182 117/120/190
f 114/117/183 118/121/191 117/120/192 113/116/184
f 115/118/185 119/122/193 120/123/194 116/119/186
f 67/69/187 73/75/195 119/122/196 115/118/188
f 64/66/197 70/72/198 44/45/199 49/50/200 54/55/201 72/74/202 65/67/203 59/61/204 55/57/205 50/56/206 45/46/207 58/60/208
f 103/111/209 108/110/210 112/115/211 116/119/212 120/123/213 106/108/214 101/103/215 96/98/216 118/121/217 114/117/218 110/113/219 98/100/220
