# Blender v2.78 (sub 0) OBJ File: 'spider_modified.blend'
# www.blender.org
mtllib black_widow_right_front_leg_2.mtl
o SpiderHalf2.006_SpiderHalf2.008
v -0.772006 0.530761 -0.585253
v -0.778290 1.496897 -0.712842
v -0.825997 0.566698 -1.261379
v -0.732280 1.448424 -1.333872
v -1.032106 1.127469 -0.840000
v -1.072106 0.447469 -0.860000
v -1.112106 0.467469 -1.050000
v -1.092106 1.157469 -1.070000
v -4.384872 2.967468 0.936382
v -4.384872 2.627468 1.056382
v -4.244872 2.507468 1.146382
v -4.334872 3.137468 1.046382
v -4.574872 2.537469 0.626382
v -4.614872 2.417469 0.456382
v -4.614872 2.937469 0.536382
v -4.774872 3.137468 0.416382
v -7.020831 2.197468 3.337657
v -9.208065 0.057468 5.320208
v -6.960831 1.807468 3.327657
v -7.250830 1.767468 3.057657
v -7.320831 2.157468 3.067657
vt 0.0593 0.8294
vt 0.0602 0.7864
vt 0.0348 0.7927
vt 0.0427 0.8536
vt 0.1500 0.0645
vt 0.1583 0.0690
vt 0.1694 0.0725
vt 0.1298 0.0529
vt 0.1694 0.0825
vt 0.1694 0.0864
vt 0.1711 0.0874
vt 0.1567 0.1503
vt 0.1490 0.1400
vt 0.1418 0.1412
vt 0.1211 0.1517
vt 0.2796 0.7415
vt 0.2768 0.7194
vt 0.2661 0.7100
vt 0.2716 0.7437
vt 0.4228 0.9528
vt 0.4318 0.9621
vt 0.4615 0.9567
vt 0.4724 0.9489
vt 0.4682 0.9818
vt 0.4804 0.9948
vt 0.2927 0.7689
vt 0.2847 0.7894
vt 0.7931 0.8949
vt 0.9878 0.7804
vt 0.7899 0.8707
vt 0.2036 0.8205
vt 0.0020 0.7377
vt 0.1923 0.8432
vt 0.1878 0.8679
vt 0.8065 0.9166
vt 0.5764 0.9686
vt 0.5802 0.9974
vt 0.4175 0.9128
vt 0.4170 0.9389
vt 0.4185 0.8825
vt 0.5788 0.9458
vt 0.0156 0.7219
vt 0.0110 0.7370
vt 0.0020 0.6822
vt 0.4331 0.6829
vt 0.4451 0.6801
vt 0.7460 0.9521
vt 0.7379 0.9980
vt 0.9883 0.8727
vt 0.9866 0.8292
vn -0.7417 0.0248 0.6702
vn -0.7426 0.0240 0.6693
vn -0.7427 0.0240 0.6692
vn 0.0913 -0.9957 -0.0183
vn -0.0940 -0.9920 -0.0846
vn -0.5678 0.0820 -0.8191
vn -0.7433 0.0021 -0.6690
vn -0.7433 0.0022 -0.6690
vn -0.7672 0.6389 -0.0564
vn -0.4709 0.8507 0.2338
vn -0.7672 0.6390 -0.0563
vn -0.8780 -0.0499 0.4761
vn -0.3056 0.3169 0.8979
vn -0.8780 -0.0498 0.4761
vn -0.7811 -0.4085 0.4722
vn -0.7307 -0.5276 0.4333
vn -0.7307 -0.5275 0.4333
vn -0.6815 -0.1113 0.7233
vn -0.9661 -0.0392 0.2550
vn -0.6816 -0.1113 0.7233
vn -0.7826 -0.2981 0.5466
vn -0.8624 -0.0707 0.5012
vn 0.7221 0.0935 0.6855
vn 0.3729 -0.8880 -0.2690
vn -0.7835 -0.1250 -0.6087
vn -0.4166 0.8439 0.3379
vn -0.2379 0.9692 0.0641
vn -0.2128 0.9727 0.0923
vn -0.7141 -0.2209 -0.6643
vn -0.7350 -0.1148 -0.6683
vn 0.3502 -0.9358 0.0411
vn 0.2301 -0.9676 -0.1038
vn 0.7023 0.2369 0.6713
vn 0.7320 0.0953 0.6746
vn 0.4723 0.8814 -0.0082
vn 0.3631 0.8966 -0.2536
vn 0.6014 -0.0588 0.7967
vn 0.6589 0.2088 0.7226
vn 0.6015 -0.0588 0.7967
vn -0.4844 -0.8748 0.0099
vn -0.3419 -0.8907 0.2995
vn -0.5081 -0.0102 -0.8612
vn -0.5423 -0.1663 -0.8236
vn -0.5422 -0.1663 -0.8236
usemtl initialShadingGroup1
s off
f 5/1/1 6/2/2 1/3/3 2/4/1
f 6/5/4 7/6/5 3/7/5 1/8/4
f 3/7/6 7/9/7 8/10/8 4/11/6
f 4/12/9 8/13/10 5/14/10 2/15/11
f 9/16/12 10/17/13 11/18/13 12/19/14
f 11/20/15 10/21/16 13/22/17 14/23/15
f 14/23/18 13/22/19 15/24/19 16/25/20
f 15/26/21 9/16/22 12/19/22 16/27/21
f 17/28/23 18/29/23 19/30/23
f 19/31/24 18/32/24 20/33/24
f 20/33/25 18/32/25 21/34/25
f 21/35/26 18/29/26 17/28/26
f 21/35/27 17/28/28 9/36/28 15/37/27
f 13/38/29 20/33/30 21/34/30 15/39/29
f 10/40/31 19/31/32 20/33/32 13/38/31
f 17/28/33 19/30/34 10/41/34 9/36/33
f 16/27/35 12/19/36 5/42/36 8/43/35
f 5/42/37 12/19/38 11/18/38 6/44/39
f 6/45/40 11/20/41 14/23/41 7/46/40
f 14/47/42 16/48/43 8/49/44 7/50/42
