# Blender v2.78 (sub 0) OBJ File: ''
# www.blender.org
mtllib floor_20x20.mtl
o Cube
v 10.000000 -0.250000 -9.999999
v 10.000000 -0.250000 10.000000
v -10.000001 -0.250000 9.999998
v -9.999996 -0.250000 -10.000004
v 10.000005 0.250000 -9.999994
v 9.999993 0.250000 10.000006
v -10.000004 0.250000 9.999996
v -9.999999 0.250000 -10.000000
vt 0.0000 0.0000
vt 10.0000 0.0000
vt 10.0000 10.0000
vt 0.0000 10.0000
vt 0.0000 0.0000
vt 10.0000 0.0000
vt 10.0000 10.0000
vt 0.0000 10.0000
vt 10.0000 0.0000
vt 10.0000 10.0000
vt 0.0000 10.0000
vt 0.0000 0.0000
vt 10.0000 0.0000
vt 0.0000 10.0000
vt 0.0000 0.0000
vt 10.0000 0.0000
vt 10.0000 10.0000
vt 10.0000 0.0000
vt 10.0000 10.0000
vt 0.0000 10.0000
vn 0.0000 -1.0000 0.0000
vn 0.0000 1.0000 0.0000
vn 1.0000 0.0000 0.0000
vn -0.0000 -0.0000 1.0000
vn -1.0000 -0.0000 -0.0000
vn 0.0000 0.0000 -1.0000
usemtl Material
s off
f 1/1/1 2/2/1 3/3/1 4/4/1
f 5/5/2 8/6/2 7/7/2 6/8/2
f 1/1/3 5/9/3 6/10/3 2/11/3
f 2/12/4 6/13/4 7/7/4 3/14/4
f 3/15/5 7/16/5 8/17/5 4/4/5
f 5/5/6 1/18/6 4/19/6 8/20/6
